<svg xmlns="http://www.w3.org/2000/svg" viewBox="0 0 512 512"><title>Beech_Tree</title><g id="beech_tree" data-name="beech,tree"><path d="M399.165,354.2471l-152.2075,6.9287a52.4463,52.4463,0,1,0-11.7519,64.4082l.0136.0249,29.0215-16.2964s49.0884,49.2354,98.1763,0C362.417,409.3125,406.0771,405.6289,399.165,354.2471Z" style="fill:#4d4d4d"/><path d="M87.9487,148.3115a2.6464,2.6464,0,0,0-4.5932,1.9761c.7324,9.25-1.1592,24.32-16.8872,37.8364,0,0-34.9629,27.5821-4.6617,59.8252l68.3716,5.8272,13.5967-45.4517Z" style="fill:#4d4d4d"/><path d="M430.0508,152.0986c3.1553,6.022,9.0879,14.8921,17.7978,20.1343a27.2855,27.2855,0,0,1,7.4248,5.9907c5.7608,7.1543,12.9,23.0425-4.6025,48.7481H378.8032l4.273-77.3067,36.5063-3.2021A10.7276,10.7276,0,0,1,430.0508,152.0986Z" style="fill:#4d4d4d"/><path d="M233.2407,409.3125h49.43a0,0,0,0,1,0,0v81.4624a9.5356,9.5356,0,0,1-9.5356,9.5356H242.7769a9.5362,9.5362,0,0,1-9.5362-9.5362V409.3125A0,0,0,0,1,233.2407,409.3125Z" style="fill:#fff"/><path d="M233.2407,446.3286l.271.1851s7.0635,5.0376,27.6113,8.2978v17.5069c0,11.4668-6.4648,22.249-16.9946,26.7895q-.6951.3-1.4277.5889c.0439.355.0322.2588.0762.6137h30.3574a9.5357,9.5357,0,0,0,9.5361-9.5356V409.3125h-49.43Z" style="fill:#d8d8d8"/><path d="M273.1353,507.3018h-30.358a16.5459,16.5459,0,0,1-16.53-16.5254V402.3218h63.416v88.4546A16.5442,16.5442,0,0,1,273.1353,507.3018Zm-32.9029-90.9947v74.4693a2.5452,2.5452,0,0,0,2.5449,2.54h30.358a2.543,2.543,0,0,0,2.5424-2.54V416.3071Z" style="fill:#4d4d4d"/><path d="M216.6118,431.5049s43.6831,22.79,81.9092-3.9649l1.6235-33.2837-83.2119-8.17Z" style="fill:#4d4d4d"/><path d="M462.6064,241.0972c0-16.4556-2.3271-33.272-25.788-39.4029a25.5927,25.5927,0,0,0-24.168,6.312c-6.2925,6.0938-14.1851,7.9527-20.9536,8.1568a3.4661,3.4661,0,0,1-2.1353-6.2988,38.8668,38.8668,0,0,0,10.77-12.5508,33.88,33.88,0,0,1,20.5191-19.7158,26.4687,26.4687,0,0,0,17.29-20.9273,48.6531,48.6531,0,0,0,.6123-7.6929,70.9431,70.9431,0,0,0-66.3852-70.6333C355.0293,35.52,306.8169,4.6982,250.0107,4.6982c-60.6577,0-111.5336,35.1329-125.4638,82.5093A78.6632,78.6632,0,0,0,86.6421,197.2227a55.9153,55.9153,0,0,0,28.104,25.2338,73.0468,73.0468,0,0,0,15.4038,4.3208,1.8277,1.8277,0,0,1,.1763,3.5733c-4.4864,1.1587-9.7373,2.3877-13.8584,2.9853a14.073,14.073,0,0,0-3.9942,1.2369c-4.6264,2.1835-17.2241,6.2758-27.5815-7.3545A7.3169,7.3169,0,0,0,74.32,226.106,71.2615,71.2615,0,0,0,99.4072,348.2676a43.4956,43.4956,0,0,0-.7182,22.123,43.823,43.823,0,0,0,81.5029,10.7676A84.3317,84.3317,0,0,0,323.35,386.5718a61.3221,61.3221,0,0,0,83.958-39.4038A36.113,36.113,0,0,0,431.9834,288.32C447.7129,280.2153,462.6064,260.0107,462.6064,241.0972Z" style="fill:#6abf58"/><path d="M281.3042,115.355c-12.2881,5.23-24.9805,9.8979-38.0562,8.9839-5.0473-.9859-9.3447-3.4483-14.268-4.6382a2.98,2.98,0,0,0-3.5552,3.1806c.564,5.91,3.4595,8.83,8.64,11.66,9.6962,5.2959,17.5664,9.3008,23.6215,19.1865,1.69,2.7593,6.251,3.1407,7.8443,0a147.62,147.62,0,0,1,21.1728-31.3754C290.2261,118.3706,285.8652,113.4136,281.3042,115.355Z" style="fill:#4d4d4d"/><path d="M210.7954,109.48a10.4036,10.4036,0,0,1-1.4214-.8159c-.395-.3291-.8081-.6436-1.3047-1.0367a3.3476,3.3476,0,0,0-4.8383.5542,3.2716,3.2716,0,0,0,.2461,4.462,11.54,11.54,0,0,0,4.9316,2.4975,3.6717,3.6717,0,0,0,3.9536-1.93A2.8929,2.8929,0,0,0,210.7954,109.48Z" style="fill:#4d4d4d"/><path d="M153.2656,212.9282c.6665-1.7207-1.623-2.4624-2.7392-1.5947-3.7476,2.9126-7.043,5.939-10.8692,8.3989a44.0992,44.0992,0,0,1-16.2895,3.375c-7.3457-.0342-13.4781-2.5483-20.36-4.5888a.9356.9356,0,0,0-.9038,1.5522,26.73,26.73,0,0,0,10.9224,6.1875,2.3473,2.3473,0,0,0,1.3056,3.4614C128.022,233.3613,147.7993,227.0361,153.2656,212.9282Z" style="fill:#4d4d4d"/><path d="M341.7441,355.5566c-.0205-.0337-.0527-.04-.0756-.0688-.4263-1.4927-1.4454-2.71-2.8824-2.6362a3.0088,3.0088,0,0,0-2.3652.1694c-.1924.09-.2363.2891-.3076.4678a2.0685,2.0685,0,0,0-.9395,1.3291c-1.5127,9.6391-4.1206,20.37-13.4712,25.3647-10.8447,5.792-20.7553.6734-31.2993-2.3589a1.5283,1.5283,0,0,0-1.5947,2.3946,1.7573,1.7573,0,0,0-.7871,1.7754c.7256,3.2919,4.1362,6.5629,7.9448,8.4311.2236.1274.4585.2407.688.3618.0225.01.0439.023.0669.0327,5.5317,2.8907,12.5537,6.9351,23.1841,5.5567,18.7534-4.0156,23.4629-18.4527,22.8056-31.6455C343.374,361.3867,343.2427,357.9707,341.7441,355.5566Z" style="fill:#4d4d4d"/><path d="M206.9922,372.6377c-8.2608,2.0342-15.8438,4.4521-24.4595,2.7812a29.1334,29.1334,0,0,1-4.9389-1.4375,54.0412,54.0412,0,0,1-8.6275-5.538c-2.4551-2.0249-4.4927-5.709-7.4941-6.8008a.5007.5007,0,0,0-.4341.0849c-.0064,0-.0122.0039-.0186.0039-.0346.021-.084,0-.1142.0274a1.4792,1.4792,0,0,0-.6084.145,3.132,3.132,0,0,0-1.59,2.4448c-.1064.1558-.2636.2622-.32.461a9.898,9.898,0,0,0,.9,7.2075c1.397,5.3706,6.5664,10.1748,10.8745,12.8393,3.5093,2.1705,9.3809,4.7774,13.8657,3.7212a24.5313,24.5313,0,0,0,16.2022-4.1587,20.9288,20.9288,0,0,0,8.959-7.3789,1.7461,1.7461,0,0,0,.3061-1.0825C210.6289,374.4541,208.8037,372.1914,206.9922,372.6377Z" style="fill:#4d4d4d"/></g></svg>