<svg xmlns="http://www.w3.org/2000/svg" viewBox="0 0 512 512"><title>Bench</title><g id="bench_chair" data-name="bench,chair"><path d="M137.6445,409.4521h-22.497V113.728A11.2484,11.2484,0,0,1,126.396,102.48h0a11.2484,11.2484,0,0,1,11.2485,11.248Z" style="fill:#fff"/><path d="M396.8525,409.4521h-22.497V113.728a11.2485,11.2485,0,0,1,11.249-11.248h0a11.2483,11.2483,0,0,1,11.248,11.248Z" style="fill:#fff"/><rect x="78.2358" y="127.2187" width="355.5288" height="51.1778" style="fill:#fff"/><rect x="78.2358" y="211.9824" width="355.5288" height="51.1782" style="fill:#fff"/><rect x="60.0835" y="296.7461" width="391.8335" height="32.7861" style="fill:#d8d8d8"/><path d="M98.2813,141.7705c-1.5108,2.8955-.9249,7.0093-.9942,10.2114-.0889,4.0962,6.4536,4.1026,6.3648,0-.0689-3.1992.5166-7.3159-.9937-10.2114A2.5524,2.5524,0,0,0,98.2813,141.7705Z" style="fill:#4d4d4d"/><path d="M112.2666,142.9072a22.1714,22.1714,0,0,0-.2871,3.2754c-.0938,3.0972,5.0249,3.0283,4.7607,0a14.9788,14.9788,0,0,0-.5088-3.2754C115.666,141.1216,112.645,140.7861,112.2666,142.9072Z" style="fill:#4d4d4d"/><path d="M125.7539,146.4194c1.0371.0352,2.0757-.5825,1.9165-1.8266a10.7109,10.7109,0,0,0-.0513-1.7158,1.8679,1.8679,0,0,0-3.7334,0,10.7225,10.7225,0,0,0-.0512,1.7158C123.6753,145.8359,124.7158,146.4551,125.7539,146.4194Z" style="fill:#4d4d4d"/><path d="M98.4873,227.5605c-1.4883,2.8531-.9111,6.9068-.98,10.063-.0874,4.0357,6.36,4.043,6.272,0-.0679-3.1523.5093-7.2094-.979-10.063A2.5154,2.5154,0,0,0,98.4873,227.5605Z" style="fill:#4d4d4d"/><path d="M112.269,228.68a21.9414,21.9414,0,0,0-.2827,3.228c-.0923,3.0522,4.9522,2.9849,4.6914,0a14.7658,14.7658,0,0,0-.5014-3.228C115.62,226.9209,112.6421,226.59,112.269,228.68Z" style="fill:#4d4d4d"/><path d="M123.8857,229.9526a10.7193,10.7193,0,0,0-.0512,1.7154c-.1592,1.2431.8813,1.8623,1.9194,1.8271,1.0371.0352,2.0757-.583,1.9165-1.8271a10.7077,10.7077,0,0,0-.0513-1.7154A1.8679,1.8679,0,0,0,123.8857,229.9526Z" style="fill:#4d4d4d"/><polygon points="241.687 263.161 433.765 263.161 433.765 211.982 304.235 211.982 241.687 263.161" style="fill:#d8d8d8"/><polygon points="345.281 178.397 433.765 178.397 433.765 127.218 407.828 127.218 345.281 178.397" style="fill:#d8d8d8"/><path d="M403.332,290.2671V269.6406h36.9112v-64.14H403.332V184.875h36.9112V120.7393H403.332v-7.0118a17.7275,17.7275,0,0,0-35.455,0v7.0118H144.124v-7.0118a17.7278,17.7278,0,0,0-35.4555,0v7.0118H71.7554V184.875h36.9131v20.626H71.7554v64.14h36.9131v20.6265H53.6035v45.7451h55.065V415.93H144.124v-79.918H367.877V415.93h35.455v-79.918h55.0645V290.2671ZM131.1636,402.97h-9.5347V361.3h9.5347Zm259.2075,0h-9.5342V361.3h9.5342ZM84.7158,171.9146V133.7H427.2822v38.2149H84.7158Zm59.4082,12.96H367.877v20.626H144.124ZM84.7158,256.68V218.4614H427.2822V256.68H84.7158Zm59.4082,12.96H367.877v20.6265H144.124Zm301.3125,53.4112H66.564V303.2275H445.4365Z" style="fill:#4d4d4d"/><path d="M503.0244,369.061c-20.5527-.94-65.417,9.4585-85.8115,46.9156L448.6816,416a11.5005,11.5005,0,0,0,10.2373-6.4209c4.3887-8.668,15.9786-24.0762,45.0743-33.269A3.717,3.717,0,0,0,503.0244,369.061Z" style="fill:#4d4d4d"/><path d="M430.3135,415.9946a11.3452,11.3452,0,0,0,10.65-7.3725c5.458-14.5381,20.62-47.0425,52.1728-65.3325,5.19-3.0088,1.5352-10.563-3.6992-9.6822-21.8516,3.6773-84.4033,27.0308-103.833,82.3262Z" style="fill:#6abf58"/><path d="M407.9131,410.915a118.79,118.79,0,0,1,13.0254-20.5913,146.752,146.752,0,0,1,38.8672-34.5923c1.4638-.9,2.8115,1.3755,1.5254,2.5069-20.0245,17.6084-37.1329,34.395-49.2432,57.6186l-6.4063-.0088C406.39,414.1807,407.125,412.5254,407.9131,410.915Z" style="fill:#4d4d4d"/><path d="M8.9756,369.061c20.5522-.94,65.417,9.4585,85.8115,46.9156L63.3179,416a11.5009,11.5009,0,0,1-10.2368-6.4209c-4.3887-8.668-15.9786-24.0762-45.0743-33.269A3.717,3.717,0,0,1,8.9756,369.061Z" style="fill:#4d4d4d"/><path d="M81.6865,415.9946a11.3447,11.3447,0,0,1-10.65-7.3725C65.5786,394.084,50.4155,361.58,18.8638,343.29c-5.1909-3.0088-1.5352-10.563,3.6992-9.6822,21.8516,3.6773,84.4028,27.0308,103.833,82.3262Z" style="fill:#6abf58"/><path d="M104.0869,410.915a118.79,118.79,0,0,0-13.0254-20.5913,146.7385,146.7385,0,0,0-38.8677-34.5923c-1.4628-.9-2.811,1.3755-1.5249,2.5069,20.0245,17.6084,37.1324,34.395,49.2432,57.6186l6.4063-.0088C105.61,414.1807,104.8755,412.5254,104.0869,410.915Z" style="fill:#4d4d4d"/></g></svg>