<svg xmlns="http://www.w3.org/2000/svg" viewBox="0 0 512 512"><title>Bird_of_paradise_Plant</title><g id="the_bird_of_paradise_plant_flower" data-name="the bird of paradise,plant,flower"><path d="M173.4121,360.0835l21.3125,111.6973A29.9533,29.9533,0,0,0,224.147,496.12h61.7046a29.9533,29.9533,0,0,0,29.4223-24.3393l21.3125-111.6973Z" style="fill:#fff"/><path d="M287.208,360.0835l-9.2822,91.7446s1.9238,32.85-63.6719,42.0386a29.76,29.76,0,0,0,11.22,2.2534h61.7046a29.9535,29.9535,0,0,0,29.4224-24.3393l21.3125-111.6973Z" style="fill:#d8d8d8"/><path d="M388.7207,308.1289a88.5871,88.5871,0,0,0-18.8916-5.97,1.0368,1.0368,0,0,1,.2271-2.0508c4.0463.0322,7.5805.1621,10.3554.3145a6.9079,6.9079,0,0,0,7.2715-7.1363,7.06,7.06,0,0,0-6.9951-6.7427,84.867,84.867,0,0,0-11.5649.585,1.0365,1.0365,0,0,1-.3975-2.0283c.0283-.0073.0566-.0147.085-.0225a6.9016,6.9016,0,0,0,4.78-8.7011,7.0363,7.0363,0,0,0-8.78-4.5918,97.32,97.32,0,0,0-18.4126,7.9443,1.0368,1.0368,0,0,1-1.1425-1.7217c1.0629-.8452,2.0478-1.6,2.9394-2.2534a6.9014,6.9014,0,0,0,1.3423-9.8257,7.0679,7.0679,0,0,0-9.8032-1.1855c-49.7837,37.1757-53.5093,92.0673-53.5093,92.0673h9.0732A115.0622,115.0622,0,0,1,303.43,339.748a42.4462,42.4462,0,0,1,63.2173-11.2753,98.3027,98.3027,0,0,1,8.1992,7.2451,6.9021,6.9021,0,0,0,9.9106-.0464,7.0547,7.0547,0,0,0-.3022-9.9717,65.929,65.929,0,0,0-5.0718-4.3657,1.038,1.038,0,0,1,1.07-1.76c.8853.3955,1.6929.7764,2.4131,1.1406a6.9012,6.9012,0,0,0,9.3652-3.2509A7.0554,7.0554,0,0,0,388.7207,308.1289Z" style="fill:#4d4d4d"/><path d="M291.5186,358.2656s3.2094-30.9643,22.1494-47.0259c7.9067-6.705,18.1792-12.0859,28.2627-11.1308,10.2631.9717,19.0136,3.7012,26.563,19.7139,0,0,10.123,25.4746,29.6381,37.0893,3.5645,2.1221,1.5923,8.0615-2.4951,8.1157-12.6255.1685-31.0273-3.3037-43.9453-21.77a29.985,29.985,0,0,0-8.3076-8.4726c-9.1968-5.7715-27.5728-10.4375-45.4678,25.4067Z" style="fill:#6abf58"/><path d="M445.6094,91.7822c-12.5186.1558-34.312,3.7022-55.2295,23.0069,0,0-71.9756,76.9814-101.72,158.2583,0,0,28.3437-18.8575,69.9506-21.2876a10.1919,10.1919,0,0,0,9.1592-7.21c5.2456-17.1694,19.3638-61.144,43.3838-100.1523l-10.6-5.7974,17.0205-4.3442c9.0889-13.607,19.3028-26.0049,30.5879-35.5459A3.9073,3.9073,0,0,0,445.6094,91.7822Z" style="fill:#4d4d4d"/><path d="M159.1494,300.9307a12.2538,12.2538,0,0,0,7.4468,5.1811c30.1094,7.3677,47.2075,21.668,47.2075,21.668l.45-7.3081c-.4521-79.3535-36.0264-134.3706-72.4023-162.918L131.27,173.7617a1.8676,1.8676,0,0,1-3.4311-.9931l-.3658-25.1465c-13.75-8.2183-26.958-12.5406-37.7045-12.82-7.9693-.2081-15.1651,4.8618-20.2139,11.122l-.2832.3506a30.9308,30.9308,0,0,0-4.6944,30.8086h0A71.003,71.003,0,0,0,80.2549,200.98c18.3305,18.4634,35.33,39.2749,49.0112,57.4082a123.2263,123.2263,0,0,1,25.18,2.7324,1.8663,1.8663,0,0,1,.0454,3.6319c-6.0605,1.602-12.1084,3.4809-16.8042,5.0175C147.87,283.7969,155.4175,295.1748,159.1494,300.9307Z" style="fill:#6abf58"/><path d="M295.0576,267.9468s16.6167-21.8819,53.7949-32.6992A16.1478,16.1478,0,0,0,359.87,224.4214c7.6787-25.5484,33.9737-101.6885,85.3145-143.9A2.3078,2.3078,0,0,0,443.28,76.48c-11.6245,2.1094-34.2935,10.0576-57.2578,39.55C386.0225,116.03,313.19,196.0127,295.0576,267.9468Z" style="fill:#6abf58"/><path d="M162.2266,176.65l-1.39,57.27s46.482,58.7983,52.9673,93.8594l.45-7.3081C213.8872,256.1694,190.4556,207.8574,162.2266,176.65Z" style="fill:#4d4d4d"/><path d="M412.1084,90.0884a.9874.9874,0,0,0-1.415.02C284.7026,199.541,258.6611,354.3247,257.5723,361.76l14.3335,2.104c.2612-1.7681,26.1054-162.6421,140.1582-272.5523A.8677.8677,0,0,0,412.1084,90.0884Z" style="fill:#4d4d4d"/><path d="M100.7549,175.3721a1.285,1.285,0,0,0-.63,1.4887c97.0191,76.3262,120.1651,185.98,120.1651,185.98l11.2255.0806C198.8286,245.439,124.5435,189.3247,100.7549,175.3721Z" style="fill:#4d4d4d"/><path d="M280.936,239.3657c-1.54-9.8725-2.6294-19.4277-3.3657-28.687a87.4625,87.4625,0,0,0-22.0552,5.3687,2.22,2.22,0,0,1-2.354-3.63c7.6841-7.7871,17.7007-13.5415,23.5152-16.5117-3.1245-80.5474,21.9077-134.7925,32.4165-153.8042a5.3441,5.3441,0,0,0-4.8994-7.9239,77.836,77.836,0,0,0-31.6529,9.0445c-.9443-10.2681-7.3227-22.9615-15.0078-32.27-3.1929-3.8671-9.2783-2.7343-9.7681,2.2569-4.24,43.18-32.3056,83.435-32.3056,83.435A171.5966,171.5966,0,0,0,191.08,139.9282l14.8935,31.6929a1.21,1.21,0,0,1-1.8369,1.47l-18.96-14.7231c-4.7945,37.1137-1.4844,71.8037-.0742,83.51a7.9027,7.9027,0,0,0,4.2739,6.0279c42.8452,22.44,49.83,67.4658,49.83,67.4658.6523-39.9766,27.5947-61.2964,38.2846-68.1953A7.8125,7.8125,0,0,0,280.936,239.3657Z" style="fill:#6abf58"/><path d="M241.855,365.9619l13.936-3.9521c-.5259-1.855-54.2217-157.3872,13.6006-302.7618.0215-.9555-.4717-1.2451-.4717-1.2451-.3745-.2441-.8481-.1006-1.33.1973C193.5371,184.3262,239.6328,358.1328,241.855,365.9619Z" style="fill:#4d4d4d"/><path d="M285.8516,503.3618H224.1475a37.24,37.24,0,0,1-36.54-30.2246L164.6553,352.8418H345.3437L322.3911,473.1372A37.24,37.24,0,0,1,285.8516,503.3618ZM182.17,367.3291l19.67,103.0918a22.7363,22.7363,0,0,0,22.3067,18.4536h61.7041a22.7366,22.7366,0,0,0,22.3066-18.4536l19.67-103.0918Z" style="fill:#4d4d4d"/><path d="M249.5093,243.1211c-7.2134,3.4751-16.4322,8.7226-19.9439,16.3135-.4189.9057.4839,2.0908,1.4712,1.4712,3.3223-2.0855,5.8755-5.04,8.753-7.6612a96.9994,96.9994,0,0,1,10.729-8.3969,1.0006,1.0006,0,0,0-1.0093-1.7266Z" style="fill:#4d4d4d"/><path d="M210.7349,198.1426a83.2725,83.2725,0,0,1,11.2915,13.73c3.0019,4.5908,4.9257,9.771,8.0937,14.2329.5806.8169,2.2236.6567,2.1094-.5713-1.0874-11.6978-11.1924-22.439-20.0772-29.2275-1.0693-.8174-2.3432.9257-1.4174,1.8364Z" style="fill:#4d4d4d"/><path d="M260.1978,114.0957c-6.4537,2.9331-13.3316,7.1323-18.3384,12.2192-1.4927,1.5162.5053,4.375,2.3545,3.0513,5.8471-4.1855,11.4126-8.9082,17.1645-13.251a1.17,1.17,0,0,0-1.1806-2.02Z" style="fill:#4d4d4d"/><path d="M250.3257,77.8379c.6064,4.189.2812,8.5986,1.1221,12.72a1.0265,1.0265,0,0,0,1.9648,0c.835-4.2119-.2061-9.1289-.9409-13.312-.25-1.4238-2.3477-.7978-2.146.5923Z" style="fill:#4d4d4d"/><path d="M169.6914,284.0688c10.8608.5948,21.7715,1.81,32.6011,2.2867,2.39.1054,2.8012-3.4829.5566-4.1128-10.1909-2.86-22.7358-3.0889-33.1577-1.72a1.7744,1.7744,0,0,0,0,3.5463Z" style="fill:#4d4d4d"/><path d="M122.1626,210.6543c7.7417,1.5947,15.3765,3.0654,22.9971,5.207,1.478.4156,2.5449-1.872,1.0757-2.5512a46.257,46.257,0,0,0-23.8272-4.4717c-.957.0952-1.3472,1.5884-.2456,1.8159Z" style="fill:#4d4d4d"/><path d="M117.7026,180.1982c-1.17,2.3955-.1635,5.8643.6431,8.2764.9331,2.79,2.1577,5.5025,4.5806,7.2837.7788.5728,1.7114-.3691,1.5244-1.1714-.645-2.7676-2.232-5.25-3.2061-7.9072-.7915-2.1582-1.0488-4.8091-2.4756-6.6192a.6822.6822,0,0,0-1.0664.1377Z" style="fill:#4d4d4d"/><path d="M340.4761,212.2539c-5.7168.1816-11.1709,2.5557-16.3765,4.7681-5.5684,2.3662-12.4189,4.9516-16.6416,9.3926a1.3306,1.3306,0,0,0,1.2847,2.207c5.2807-1.6924,10.0254-5.3657,15.0244-7.8081,5.5425-2.708,11.7056-4.461,16.9277-7.751a.4374.4374,0,0,0-.2187-.8086Z" style="fill:#4d4d4d"/><path d="M363.2842,159.707c-5.3384.7237-12.0029,3.0884-16.1768,6.6-.9746.82.0713,2.4126,1.2114,2.0806,2.6231-.7622,5.0391-2.2251,7.53-3.3389,2.7466-1.2285,5.479-2.2646,8.1333-3.687.9844-.5278.2388-1.7817-.6977-1.6548Z" style="fill:#4d4d4d"/><path d="M391.16,117.3638c-4.3843.4966-9.3365,1.4155-12.8106,4.372a1.199,1.199,0,0,0,.84,2.0288c4.3633-.5,8.5694-2.9736,12.3321-5.0654.5859-.3257.3657-1.418-.3618-1.3354Z" style="fill:#4d4d4d"/><path d="M352.9785,327.21a59.9174,59.9174,0,0,0-30.78,5.3061h0a22.4258,22.4258,0,0,1,19.7764,1.438,46.102,46.102,0,0,1,11.16-4.8462A.9712.9712,0,0,0,352.9785,327.21Z" style="fill:#4d4d4d"/><path d="M349.8843,335.2607a25.6971,25.6971,0,0,0,5.1045-1.1084.5688.5688,0,0,0-.15-1.1113,9.6736,9.6736,0,0,0-5.3174,1.3574c-.5073.2491-.1318.9566.3633.8623Z" style="fill:#4d4d4d"/><path d="M353.8345,338.9463a3.1984,3.1984,0,0,0,2.415-.5274.4029.4029,0,0,0,0-.6835c-.9731-.7149-1.6577-.5-2.73.0507a.6277.6277,0,0,0,.3145,1.16Z" style="fill:#4d4d4d"/><path d="M357.3223,342.376a.8873.8873,0,0,0,0-1.7735.8873.8873,0,0,0,0,1.7735Z" style="fill:#4d4d4d"/></g></svg>