<svg xmlns="http://www.w3.org/2000/svg" viewBox="0 0 512 512"><title>Bird_Nest</title><g id="bird_house" data-name="bird,house"><path d="M159.7158,139.5029,255.999,75.2192l96.2852,70.1324L335.7266,273.5024a17.9628,17.9628,0,0,1-18.2422,15.6563l-123.5152-2.94a17.9631,17.9631,0,0,1-17.3886-15.6651Z" style="fill:#fff"/><path d="M141.2632,448.8076c22.9741-1.0508,73.125,10.5733,95.9223,52.4439l-35.1772.0258a12.856,12.856,0,0,1-11.4429-7.1767c-4.9057-9.69-17.8613-26.9136-50.3852-37.19A4.1551,4.1551,0,0,1,141.2632,448.8076Z" style="fill:#4d4d4d"/><path d="M222.541,501.2715a12.6811,12.6811,0,0,1-11.9048-8.2412c-6.1006-16.251-23.05-52.585-58.32-73.03-5.8022-3.3633-1.7163-11.8076,4.1353-10.8232,24.4262,4.1108,94.3476,30.2158,116.0669,92.0263Z" style="fill:#6abf58"/><path d="M247.5811,495.5933a132.7821,132.7821,0,0,0-14.56-23.0171,164.0344,164.0344,0,0,0-43.4478-38.6685c-1.6352-1.0063-3.1421,1.5376-1.7046,2.8023,22.3838,19.6831,41.5079,38.4472,55.045,64.4077l7.1616-.01C249.2842,499.2441,248.4629,497.3936,247.5811,495.5933Z" style="fill:#4d4d4d"/><path d="M296.5742,124.1514s55.71,139.2109-74.89,165.3921h111.97l18.63-136.3706Z" style="fill:#d8d8d8"/><path d="M296.793,194.228A40.7933,40.7933,0,1,1,256,153.4346,40.7936,40.7936,0,0,1,296.793,194.228Z" style="fill:#4d4d4d"/><path d="M259.1289,289.5435H221.6841C239.8384,329.4,250.5483,493.97,250.5483,493.97h17.1626S278.42,329.4,296.5742,289.5435Z" style="fill:#fff"/><path d="M256.3892,289.5435c1.7465,19.7973,8.1577,107.52-8.1431,173.854,1.5088,18.4233,2.3022,30.5722,2.3022,30.5722h17.1626S278.42,329.4,296.5742,289.5435h-40.185Z" style="fill:#d8d8d8"/><path d="M255.999,59.897,152.0771,134.9233l14.7823,142.668a21.451,21.451,0,0,0,21.39,19.2886H216.84c16.3663,44.7109,26.375,195.9853,26.4776,197.562l.4409,6.772H274.5l.4385-6.772c.1045-1.5767,10.1133-152.8511,26.4824-197.562h22.333a21.4539,21.4539,0,0,0,21.3867-19.2886L359.92,134.9233Zm4.9463,426.83h-3.6328C255.5439,461.77,248.92,375.75,238.1992,322.001h41.8594C269.3379,375.75,262.7139,461.77,260.9453,486.7266Zm69.7832-210.63a7,7,0,0,1-6.9746,6.2954h-7.0234q.1362-11.1959.2109-22.3921c.0215-3.07-4.374-2.9331-4.6787,0-.6973,6.708-2.0547,13.2837-3.1729,19.9009-.3632.8369-.7509,1.6626-1.1318,2.4912h-.1641l.043-.0942H210.4258l.043.0942h-2.1656c-.3891-1.3613-.7329-2.7368-1.0078-4.1328-.1548-3.9492-.6562-7.94-.8071-11.6626-.3223-7.9419-.7515-15.6973-2.3545-23.4927-.5039-2.45-3.8013-1.5825-4.0386.5464-.99,8.8579-.4658,17.6-.0171,26.4766.2066,4.0712.0674,8.2373.5352,12.2651H188.249a6.9966,6.9966,0,0,1-6.9775-6.291L168.853,156.25a408.0527,408.0527,0,0,1,51.0117-27.2349,90.7345,90.7345,0,0,1,72.27,0c8.8086,3.8291,17.3213,8.0757,25.0215,12.1915a345.9944,345.9944,0,0,0,.7089,39.4057,1.6427,1.6427,0,0,0,3.2832,0c.5323-5.4087.8868-10.915,1.1553-16.4482.4512-2.9175.7725-5.8633,1.0322-8.8179.4375-2.6138.77-5.2559,1.1319-7.8149.1035-.7271.166-1.46.2519-2.19,7.5616,4.2388,13.9414,8.1016,18.4287,10.91Z" style="fill:#4d4d4d"/><path d="M197.707,221.7456a5.8381,5.8381,0,0,0,.0762,1.1875c.0576.9761.1147,1.9522.19,2.9287l.0136-.0014c-.17,2.6953,4.6573,3.51,4.9253.0014.0747-.9726.1314-1.9438.189-2.916a5.9331,5.9331,0,0,0,.0776-1.2C203.3335,218.2324,197.8047,218.2207,197.707,221.7456Z" style="fill:#4d4d4d"/><path d="M314.9121,241.2368a5.7231,5.7231,0,0,0,.2178,3.273,1.3129,1.3129,0,0,0,2.5107,0,5.6823,5.6823,0,0,0,.2178-3.273A1.54,1.54,0,0,0,314.9121,241.2368Z" style="fill:#4d4d4d"/><path d="M247.38,15.08C203.3042,74.5986,100.4526,143.166,100.4526,143.166v36.0689C181.6079,142.0391,256,89.0625,256,89.0625s74.3926,52.9766,155.5479,90.1724V143.166S308.6953,74.5986,264.62,15.08A10.7044,10.7044,0,0,0,247.38,15.08Z" style="fill:#6abf58"/><path d="M380.5889,448.8076c-22.9746-1.0508-73.126,10.5733-95.9229,52.4439l35.1768.0258a12.856,12.856,0,0,0,11.4433-7.1767c4.9063-9.69,17.8614-26.9136,50.3848-37.19A4.1551,4.1551,0,0,0,380.5889,448.8076Z" style="fill:#4d4d4d"/><path d="M299.3105,501.2715a12.6809,12.6809,0,0,0,11.9043-8.2412c6.1016-16.251,23.0508-52.585,58.32-73.03,5.8027-3.3633,1.7158-11.8076-4.1348-10.8232-24.4268,4.1108-94.3486,30.2158-116.0679,92.0263Z" style="fill:#6abf58"/><path d="M274.27,495.5933A132.7812,132.7812,0,0,1,288.83,472.5762a164.04,164.04,0,0,1,43.4472-38.6685c1.6358-1.0063,3.1426,1.5376,1.7051,2.8023-22.3838,19.6831-41.5078,38.4472-55.0449,64.4077l-7.1621-.01C272.5674,499.2441,273.3887,497.3936,274.27,495.5933Z" style="fill:#4d4d4d"/></g></svg>