<svg xmlns="http://www.w3.org/2000/svg" viewBox="0 0 512 512"><title>Boot_Gardener</title><g id="boot_gardener" data-name="boot,gardener"><path d="M488.6758,368.4746c-22.9746-1.0508-73.125,10.5733-95.9229,52.4443l35.1768.0259a12.8574,12.8574,0,0,0,11.4433-7.1772c4.9063-9.69,17.8614-26.9136,50.3848-37.19A4.155,4.155,0,0,0,488.6758,368.4746Z" style="fill:#4d4d4d"/><path d="M407.3975,420.9385a12.6815,12.6815,0,0,0,11.9052-8.2412c6.1006-16.25,23.05-52.585,58.3194-73.03,5.8027-3.3633,1.7158-11.8076-4.1348-10.8228-24.4268,4.11-94.3486,30.2154-116.0674,92.0264Z" style="fill:#6abf58"/><path d="M382.3574,415.2607a132.78,132.78,0,0,1,14.56-23.0175,164.0455,164.0455,0,0,1,43.4473-38.6685c1.6357-1.0059,3.1425,1.5376,1.705,2.8023-22.3838,19.6831-35.5293,38.3007-40.1806,64.4082l-22.0254-.01C380.6543,418.9111,381.4756,417.0605,382.3574,415.2607Z" style="fill:#4d4d4d"/><path d="M23.3242,368.4746c22.9746-1.0508,73.125,10.5733,95.9229,52.4443l-35.1768.0259a12.8574,12.8574,0,0,1-11.4433-7.1772c-4.9063-9.69-17.8614-26.9136-50.3858-37.19A4.1551,4.1551,0,0,1,23.3242,368.4746Z" style="fill:#4d4d4d"/><path d="M104.6025,420.9385a12.6815,12.6815,0,0,1-11.9052-8.2412c-6.1006-16.25-23.05-52.585-58.3194-73.03-5.8027-3.3633-1.7158-11.8076,4.1348-10.8228C62.94,332.9546,132.86,359.06,154.58,420.8706Z" style="fill:#6abf58"/><path d="M139.8525,415.4238c-4.0166-8.2031-16.8545-18.2138-23.3232-24.9619-13.6367-14.2241-28.582-26.855-44.8936-36.8872-1.6357-1.0059-3.1425,1.5376-1.705,2.8023,22.3838,19.6831,41.3506,38.5742,54.8886,64.5341l17.5274.0274C141.5547,419.0747,140.7334,417.2241,139.8525,415.4238Z" style="fill:#4d4d4d"/><path d="M353.74,291.9678H311.0039a20.61,20.61,0,0,1-15.124-6.5362A20.9877,20.9877,0,0,1,290.1777,269.6L295.12,148.8945a21.137,21.137,0,0,0-21.0654-22.4106h-77.96a21.1254,21.1254,0,0,0-21.0625,22.5093c.4912,7.6684,1.2266,17.1191,2.0616,27.8525,3.8808,49.853,9.7529,125.1953,3.4287,178.01a23.2782,23.2782,0,0,0,23.0888,26.08l197.18-.0049v-41.689A47.2177,47.2177,0,0,0,353.74,291.9678Z" style="fill:#4d4d4d"/><path d="M132.6084,98.3h103.03a18.3154,18.3154,0,0,1,18.2842,19.3784L247.38,276.4619a37.1449,37.1449,0,0,0,37.083,39.3013h56.4814a52.602,52.602,0,0,1,52.6016,52.602v45.27l-251.0029.001a21.12,21.12,0,0,1-21.0108-23.6162c10.3076-85.5635-3.58-215.8589-7.2021-272.2637A18.2879,18.2879,0,0,1,132.6084,98.3Z" style="fill:#fff"/><path d="M121.0918,151.8525a.2416.2416,0,0,0,0-.4829.2416.2416,0,0,0,0,.4829Z" style="fill:#4d4d4d"/><path d="M121.5322,390.0205a21.12,21.12,0,0,0,21.0108,23.6162l251.0029-.001V387.1885c-98.0088-.28-158.2314-13.06-190.0039-22.835A51.8947,51.8947,0,0,1,167.65,323.3076C157.0342,260.1348,155.042,142.5518,154.668,98.3h-22.06A18.2875,18.2875,0,0,0,114.33,117.7568C117.9521,174.1616,131.84,304.457,121.5322,390.0205Z" style="fill:#d8d8d8"/><path d="M121.0518,151.5713q-.337.3361-.6729.6728a.0567.0567,0,0,0,.08.08q.3369-.3362.6728-.6728a.0566.0566,0,0,0-.08-.08Z" style="fill:#4d4d4d"/><path d="M340.9453,308.521H284.4629a29.9045,29.9045,0,0,1-29.8438-31.7622l6.5323-158.6572a25.5563,25.5563,0,0,0-25.5137-27.0464h-103.03a25.5331,25.5331,0,0,0-25.5088,27.1665c.6465,10.0639,1.6182,22.4761,2.7217,36.563,5.14,65.604,12.9072,164.7436,4.5225,234.37a28.3662,28.3662,0,0,0,28.2011,31.7246H400.791V368.3672A59.9151,59.9151,0,0,0,340.9453,308.521Zm-216.68-154.8682c-1.1-14.0088-2.0664-26.3506-2.708-36.36a11.0436,11.0436,0,0,1,11.05-11.75h103.03a11.0689,11.0689,0,0,1,11.0449,11.8393l-1.6191,39.3316h-120.56C124.4258,155.7085,124.3428,154.6426,124.2656,153.6528ZM386.3037,406.3921h-44.88v-6.7549a6.13,6.13,0,1,0-12.26,0v6.7549H291.4707v-6.7549a6.13,6.13,0,1,0-12.26,0v6.7549H241.5176v-6.7549a6.13,6.13,0,0,0-12.26,0v6.7549H191.5645v-6.7549a6.13,6.13,0,0,0-12.26,0v6.7549H142.5439a13.9593,13.9593,0,0,1-10.44-4.688,13.6371,13.6371,0,0,1-3.3769-10.8135c7.831-65.0478,1.9316-154.2837-3.0987-219.6894H244.4668L240.1514,276.042a44.386,44.386,0,0,0,44.3115,46.9668h56.4824a45.4113,45.4113,0,0,1,45.3584,45.3584Z" style="fill:#4d4d4d"/><path d="M146.1484,202.4321c4.0049,3.09,9.3711,1.65,14.2051,1.501,5.1826-.16,11.43,1.0347,16.0195-1.582a3.109,3.109,0,0,0-.1015-5.3106c-4.3955-2.7627-11.0508-1.5786-16.0762-1.3462-4.6279.2144-10.8262-.4609-14.1142,3.2159a2.5123,2.5123,0,0,0,.0673,3.5219Z" style="fill:#4d4d4d"/><path d="M153.4551,228.5674c3.6357-.2544,8.0849.2988,10.8584-2.3467a3.0944,3.0944,0,0,0-.083-4.3486c-3.2852-2.72-8.0391-1.3941-11.8692-.3692-3.875,1.0371-3.01,7.3521,1.0938,7.0645Z" style="fill:#4d4d4d"/></g></svg>