<svg id="bush_plant" data-name="bush,plant" xmlns="http://www.w3.org/2000/svg" viewBox="0 0 512 512"><title>Bush</title><path d="M504.3018,370.127l-.0049-.0137c-9.6485-20.0952-27.5938-25.2827-35.8985-26.6221,5.876-8.6255,6.9512-16.4023,6.9512-29.0312a59.17,59.17,0,0,0-53.7851-58.8653,52.666,52.666,0,0,0-51.7813-44.0141h-.0049L114.7471,199.5171a64.6086,64.6086,0,0,0-57.2569,94.73,39.0775,39.0775,0,0,0-33.3086,48.6972,21.8775,21.8775,0,0,1,.3819,9.8706c-.1514.7593-.293,1.4947-.4151,2.2164a24.3087,24.3087,0,0,1-12.705,17.3549l-1.627.8535a6.8757,6.8757,0,0,0,3.1641,12.9786h485.332l.2686-.0616a8.9188,8.9188,0,0,0,6.3945-4.7251C507.2676,376.687,504.6133,370.7876,504.3018,370.127Z" style="fill:#4d4d4d"/><path d="M417.665,339.19a47.838,47.838,0,0,0-14.2373-46.313,28.0478,28.0478,0,0,0-27.1718-6.5439c-1.1368.3413-2.2373.7129-3.2979,1.1069a16.2148,16.2148,0,0,0-9.2432,21.2193,47.8583,47.8583,0,0,1,3.08,13.997,1.6078,1.6078,0,0,1-3.1054.6714c-8.4522-20.1723-27.9483-25.8486-37.8262-27.4428a1.6194,1.6194,0,0,1-.3506-3.1075,36.0757,36.0757,0,0,1,15.2353-2.3725,15.4968,15.4968,0,0,0,12.8858-5.273,41.8609,41.8609,0,0,1,3.91-3.958c6.9239-6.1675,12.7139-13.685,15.3887-22.5635a56.1642,56.1642,0,0,0,2.3819-16.2265,56.6932,56.6932,0,0,0-63.418-56.5078,52.6919,52.6919,0,1,0-104.86-7.3824c0,1.4419.1026,2.858.2159,4.27a60.2908,60.2908,0,0,0-81.28,43.58,17.2,17.2,0,0,0,6.5742,17.0733c12.6777,9.6548,17.6592,17.7622,20.9,22.8887a7.5965,7.5965,0,0,0,5.5517,3.5419,38.4017,38.4017,0,0,1,11.1036,3.085,3.0743,3.0743,0,0,1-.9659,5.8735c-12.8164,1.6172-21.88,8.667-27.4423,14.6871a3.0608,3.0608,0,0,1-5.1924-2.9522,29.2537,29.2537,0,0,1,5.1826-10.3652,8.3579,8.3579,0,0,0-.0645-10.7867,37.8452,37.8452,0,0,0-4.3964-4.2294,22.9236,22.9236,0,0,0-19.6407-4.5464,55.0542,55.0542,0,0,0-33.7529,84.021A31.3143,31.3143,0,0,0,58.39,386.2236H433.17A32.7546,32.7546,0,0,0,417.665,339.19Z" style="fill:#6abf58"/><path d="M94.3965,327.0928q-.4951-.3384-.99-.6778a4.0251,4.0251,0,0,0-4.15,0c-10.4961,6.93-17.7832,27.3267-8.9551,37.9644a2.1228,2.1228,0,0,0,3.5312-.9321c.8848-5.9356-.1484-11.7574,1.6465-17.6641a28.3352,28.3352,0,0,1,4.2578-8.5732c1.7207-2.337,4.3614-3.6421,5.6817-6.22A2.9308,2.9308,0,0,0,94.3965,327.0928Z" style="fill:#4d4d4d"/><path d="M227.3164,227.0156a4.2647,4.2647,0,0,0-3.1045.3921,1.7612,1.7612,0,0,0-.3515,2.7256,3.5794,3.5794,0,0,0,2.2265,1.3428C229.0283,232.291,230.19,227.4365,227.3164,227.0156Z" style="fill:#4d4d4d"/><path d="M287.4756,228.0117a1.4619,1.4619,0,0,0-.8506-.6587c-4.2256-1.3164-7.9023.4785-11.7236,2.3345-2.8,1.3594-5.54,2.9731-8.5479,3.83a21.9077,21.9077,0,0,1-3.9707.6787c-7.0088-3.2534-16.3086-4.8032-23.2549-3.3838-.1806.0249-.3584-.0019-.539.0293-2.4668.42-1.5244,3.7485.542,4.0015,4.8505.5937,9.4687,3.0327,13.7129,6.0346,3.4091,3.0083,6.7822,5.9771,9.4882,9.8516a2.3483,2.3483,0,0,0,4.0078,0c4.2706-7.9121,13.8145-13.8594,21.1768-18.5474A2.4986,2.4986,0,0,0,287.4756,228.0117Z" style="fill:#4d4d4d"/></svg>