<svg xmlns="http://www.w3.org/2000/svg" viewBox="0 0 512 512"><title>Cactus_Plant01</title><g id="Cactus_Plant-2" data-name="Cactus,Plant"><path d="M181.6729,298.7515l21.3129,111.6972a29.9529,29.9529,0,0,0,29.4219,24.3389h61.7046a29.954,29.954,0,0,0,29.4229-24.3389l21.3125-111.6972Z" style="fill:#fff"/><path d="M293.666,298.7515l-9.2812,91.7446s1.9238,32.8491-63.6724,42.0381a29.7522,29.7522,0,0,0,11.22,2.2534h61.7051A29.9521,29.9521,0,0,0,323.06,410.4482l21.3125-111.6967Z" style="fill:#d8d8d8"/><path d="M163.8154,172.3164h0a20.99,20.99,0,0,1,21.0977,21.0918c-.2954,21.13,4.9863,50.4229,36.7265,49.5576v28.8H206.1982a62.5825,62.5825,0,0,1-62.0874-54.32,162.004,162.004,0,0,1-1.4218-24.292A21.1825,21.1825,0,0,1,163.8154,172.3164Z" style="fill:#6abf58"/><path d="M347.5732,113.4907h0a18.74,18.74,0,0,0-16.7617,20.6968c2.2364,18.7339.2832,45.2349-27.9775,47.4316v27.5967l19.6045-2.25c29.25-5.4,46.1074-27.2392,46.8457-55.248a144.739,144.739,0,0,0-1.0069-21.7012A18.9109,18.9109,0,0,0,347.5732,113.4907Z" style="fill:#6abf58"/><path d="M198.7461,271.271a62.85,62.85,0,0,0,7.4521.4941H221.64V242.9658a38.0105,38.0105,0,0,1-14.121-2.0991A36.9218,36.9218,0,0,1,198.7461,271.271Z" style="fill:#4d4d4d"/><path d="M318.5,176.5127a31.4872,31.4872,0,0,1-15.666,5.1064v27.5967l19.6045-2.25a67.2969,67.2969,0,0,0,7.5908-1.9053C322.0781,196.2378,319.17,185.8066,318.5,176.5127Z" style="fill:#4d4d4d"/><path d="M161.9766,204.5869c-.8321,13.0166-.7935,30.082,7.1684,41.2261,6.729,9.418,19.5532,15.6587,31.1074,14.2861a1.3087,1.3087,0,0,0,.3462-2.5566c-13.1308-5.461-25.3559-6.8814-30.37-22.3736-3.2383-10.0053-2.9546-20.7783-5.2139-30.9931-.394-1.7808-2.9321-1.2559-3.0385.4111Z" style="fill:#4d4d4d"/><path d="M355.625,127.791c-2.4316,2.5923-1.207,6.6924-1.1055,10.0015.1368,4.4223-.2539,8.875.9756,13.1689a1.1236,1.1236,0,0,0,2.1465,0c1.6143-4.2129,1.3623-8.7187,1.2627-13.1689-.0742-3.28.6641-7.79-2.1318-10.0015a.8293.8293,0,0,0-1.1475,0Z" style="fill:#4d4d4d"/><path d="M343.875,142.3359c-1.9648,10.3238-1.2549,21.4561-6.4277,30.9829-6.0459,11.1343-15.2969,12.0718-26.4893,14.6226-1.82.4146-1.1738,2.8057.4063,3.001,27.3886,3.3906,38.1845-26.2012,35.0937-48.6065-.1807-1.3086-2.3457-1.247-2.583,0Z" style="fill:#4d4d4d"/><path d="M331.7783,298.7515H301.666v-61.628h2.335c20.0888,4.4146,27.7773,18.2163,27.7773,37.18Z" style="fill:#4d4d4d"/><path d="M263.26,69.97h0a45.27,45.27,0,0,0-45.27,45.27V298.7515h90.54V115.2393A45.27,45.27,0,0,0,263.26,69.97Z" style="fill:#6abf58"/><path d="M238.499,151.0186c-4.3764,48.7973.3355,98.3466-1.8725,147.2861-.1324,2.935,4.6821,2.9448,4.5649,0-1.9414-48.9478,3.0425-98.4688-1.07-147.2861a.8118.8118,0,0,0-1.6226,0Z" style="fill:#4d4d4d"/><path d="M240.874,139.2749c1.0713-2.34.9922-4.9775.9873-7.5171-.0049-2.9033.2608-5.8887-.6972-8.6684a1.5984,1.5984,0,0,0-3.0557,0c-.7876,2.8359-.3633,5.7666-.1895,8.6684.1524,2.54.2,5.2393,1.4239,7.5171a.8925.8925,0,0,0,1.5312,0Z" style="fill:#4d4d4d"/><path d="M258.0957,249.5542c-.918,8.83-.6455,17.772-.792,26.6406-.1465,8.8506-1.103,17.84-.1142,26.64.2324,2.0737,3.6572,3.0478,4.039.5464,2.5576-16.7686,1.6729-37.0513-.5674-53.8267a1.2836,1.2836,0,0,0-2.5654,0Z" style="fill:#4d4d4d"/><path d="M256.53,217.2383c-.7114,6.1123-1.1558,14.686,1.2192,20.4512a1.22,1.22,0,0,0,2.3281,0c2.1778-6.0235,1.2491-14.733.2334-20.9629-.3789-2.3252-3.5527-1.4478-3.7807.5117Z" style="fill:#4d4d4d"/><path d="M285.1475,123.5205c-3.3565,31.3023-.4727,63.8994-.9131,95.38-.3789,27.06-4.4805,56.5654.2451,83.3389.3584,2.0317,3.2793,1.3774,3.4082-.4615.9814-13.9946-.4365-28.313-.124-42.3789.3183-14.2949.7031-28.5844.8838-42.8823.3857-30.5674,2.79-62.6055-.8213-92.9961a1.34,1.34,0,0,0-2.6787,0Z" style="fill:#4d4d4d"/><path d="M285.3311,108.14q.1639-.36.3281-.7207-1.5366-.2013-3.0733-.4018c.2393,1.3252.79,2.5483,1.0235,3.8618.1416.8,1.1269.8481,1.64.4331a3.7049,3.7049,0,0,0,.1475-5.9312,1.69,1.69,0,0,0-2.6416,2.0381c.12.24.2412.4805.3613.7207a1.29,1.29,0,0,0,2.2149,0Z" style="fill:#4d4d4d"/><path d="M294.1123,442.0308H232.4082a37.2424,37.2424,0,0,1-36.54-30.2246L172.916,291.5083H353.6045L330.6514,411.8062A37.2361,37.2361,0,0,1,294.1123,442.0308ZM190.4312,305.9961l19.67,103.0937a22.7329,22.7329,0,0,0,22.3066,18.4532h61.7041a22.7287,22.7287,0,0,0,22.3066-18.4512l19.67-103.0957Z" style="fill:#4d4d4d"/></g></svg>