<svg xmlns="http://www.w3.org/2000/svg" viewBox="0 0 512 512"><title>Cactus_Plant02</title><g id="Cactus_Plant" data-name="Cactus,Plant"><path d="M179.6191,315.1709l21.3125,111.6973a29.954,29.954,0,0,0,29.4229,24.3388h61.7041a29.953,29.953,0,0,0,29.4228-24.3388l21.3125-111.6973Z" style="fill:#fff"/><path d="M294.2568,315.1709l-9.2822,91.7446s1.9238,32.8491-63.6719,42.0381a29.7594,29.7594,0,0,0,11.22,2.2534h61.705a29.952,29.952,0,0,0,29.4219-24.3388l21.3125-111.6973Z" style="fill:#d8d8d8"/><path d="M197.3555,276.8271l-17.251-19.935-7.8838,6.5073a22.8531,22.8531,0,0,0-.9785,34.5191c10.5215,9.5122,27.5947,19.0483,54.4824,20.9336h85.4893s37.1074-19.4742,58.1367-47.1973a19.8547,19.8547,0,0,0-6.2178-29.56h0a19.7714,19.7714,0,0,0-25.2568,5.5987L313.64,280.2773l-9.7783-52.6308a16.1785,16.1785,0,0,0-16.9023-13.1924h0c-8.9219.5508-17.082,8.3975-15.1465,17.123,3.5186,15.8638,6.8545,29.2159-3.5352,46.4l-9.5839,16.101-29.3623-91.7129a8.7927,8.7927,0,0,0-7.1807-6.0293h0a24.0989,24.0989,0,0,0-27.3867,22.5616c-.6514,12.6757.55,29.7695,6.8086,50.6455Z" style="fill:#4d4d4d"/><path d="M182.9521,144.2187c-2.1123,40.7071,2.3965,137.5625,85.3252,174.6334H236.0752s-93.89-41.2652-97.5371-175.1109a22.2452,22.2452,0,0,1,27.1465-22.2744h0A22.1656,22.1656,0,0,1,182.9521,144.2187Z" style="fill:#6abf58"/><path d="M155.9131,137.4629c-1.9951,16.9458.8379,33.0727,3.9189,49.6328,2.9561,15.8921,6.7657,33.3477,15.3067,47.2842a.8718.8718,0,0,0,1.5859-.669c-4.1885-15.229-10.75-29.5976-14.0527-45.1694-3.5469-16.7251-3.24-34.0937-4.42-51.0786a1.17,1.17,0,0,0-2.3389,0Z" style="fill:#4d4d4d"/><path d="M182.3184,248.2129c3.4541,9.5737,10.0683,18.4922,16.2832,26.4668,5.664,7.2671,11.9082,15.625,19.7744,20.581.8613.5425,2.0635-.5693,1.4453-1.4453-5.3633-7.61-12.7725-13.8354-18.6231-21.14-6.4316-8.03-11.4707-17.0625-17.8711-25.05-.375-.4678-1.207.0371-1.0087.5874Z" style="fill:#4d4d4d"/><path d="M261.207,318.8521s2.47-31.2906,44.7979-62.8379c20.6474-15.3887,72.6806-63.5269,57.5879-143.7906-2.5645-13.6347-17.085-21.5317-30.2588-17.1821h0c-11.5235,3.8052-18.5254,16.53-15.3125,28.2329,5.583,20.336,9.0488,53.7378-10.1309,90.9072a138.5875,138.5875,0,0,1-18.8388,27.2212C276.7871,255.5063,249.9,289.5347,247.92,318.8521Z" style="fill:#6abf58"/><path d="M265.62,272.853c-2.2256,3.57-4.3691,7.2666-6.3613,11.0537l4.0254,13.604Z" style="fill:#4d4d4d"/><path d="M297.9873,230.1064a62.2792,62.2792,0,0,1,10.0381,21.0684s2.2793-13.8047-2.3652-33.0254A129.3177,129.3177,0,0,1,297.9873,230.1064Z" style="fill:#4d4d4d"/><path d="M280.1357,57.7881h0a24.87,24.87,0,0,1,7.9766,32.4355c-20.3,37.8379-56.3437,127.0816-14.8516,228.6285H251.0264S181.6387,184.5825,244.3,66.7246A24.8787,24.8787,0,0,1,280.1357,57.7881Z" style="fill:#6abf58"/><path d="M262.8232,73.7612c-8.6572,12.899-12.7939,30.085-16.71,44.9488-3.9727,15.082-8.0567,31.6943-7.32,47.3984a.8337.8337,0,0,0,1.63.2207c3.9287-15.33,5.3369-31.2314,9.3447-46.6113,3.9961-15.33,11.3027-29.8833,14.8838-45.1861a1.0051,1.0051,0,0,0-1.8282-.77Z" style="fill:#4d4d4d"/><path d="M237.0781,180.7031c-2.334,31.856-1.5517,69.9,9.0157,100.4112.34.9819,2.0156.9077,1.9267-.2608-1.2588-16.67-5.085-33.1518-6.835-49.8037-1.7558-16.7222-2.0732-33.5527-2.5986-50.3467a.7549.7549,0,0,0-1.5088,0Z" style="fill:#4d4d4d"/><path d="M337.46,111.87c5.6992,29.7832,2.33,59.4229-7.41,87.9981-.3672,1.0786,1.3731,1.8383,1.8623.7856,13.1318-28.27,15.2246-59.2969,8.458-89.5864-.4267-1.9077-3.2724-1.0884-2.91.8027Z" style="fill:#4d4d4d"/><path d="M298.1465,318.8521h-19.48s52.6162-48.29,12.6709-118.7144a26.7908,26.7908,0,0,1,9.5146-36.0615h0A26.8651,26.8651,0,0,1,339.9,177.4775c12.458,32.7637,20.1074,89.0288-39.1514,141.3746Z" style="fill:#6abf58"/><path d="M311.8164,177.8716c19.6963,34.2759,18.3223,69.4,1.4561,104.3574a1.6428,1.6428,0,0,0,2.8349,1.6567c21.8975-31.6728,19.4707-76.2876-1.4248-107.69-1.1748-1.7651-3.9424-.1953-2.8662,1.6758Z" style="fill:#4d4d4d"/><path d="M271.7715,280.15c4.35-4.5879,7.4951-10.419,11.4385-15.3789,4.0127-5.0469,8.2568-9.8985,12.4931-14.7544a.8872.8872,0,0,0-1.2539-1.2539c-9.2431,7.59-20.2344,18.9614-24.0967,30.561a.8553.8553,0,0,0,1.419.8262Z" style="fill:#4d4d4d"/><path d="M292.0605,458.45h-61.708a37.2316,37.2316,0,0,1-36.5351-30.2275L170.86,307.9277H351.5527l-22.957,120.2979A37.2311,37.2311,0,0,1,292.0605,458.45ZM188.375,322.415l19.6758,103.0938a22.7262,22.7262,0,0,0,22.3017,18.4541h61.708a22.7283,22.7283,0,0,0,22.3028-18.4517L334.0381,322.415Z" style="fill:#4d4d4d"/></g></svg>