<svg xmlns="http://www.w3.org/2000/svg" viewBox="0 0 512 512"><title>Fence</title><g id="fence"><path d="M257.8184,116.0825l-28.8028,30.2813a20.5826,20.5826,0,0,0-5.67,14.186V398.94H292.292V160.55a20.5813,20.5813,0,0,0-5.669-14.186Z" style="fill:#fff"/><path d="M129.6494,116.0825l-28.8037,30.2813a20.5826,20.5826,0,0,0-5.67,14.186V398.94h68.9463V160.55a20.5813,20.5813,0,0,0-5.669-14.186Z" style="fill:#fff"/><path d="M385.9883,116.0825l-28.8028,30.2813a20.5781,20.5781,0,0,0-5.67,14.186V398.94h68.9463V160.55a20.5826,20.5826,0,0,0-5.67-14.186Z" style="fill:#fff"/><path d="M371.19,398.94h49.2724V160.55a20.5826,20.5826,0,0,0-5.67-14.186l-28.8037-30.2813-1.2266,1.2891,1.2266,8.6587,6.62,16.09a69.1542,69.1542,0,0,1,5.2021,26.3164V347.2534A63.4335,63.4335,0,0,1,371.19,398.94Z" style="fill:#d8d8d8"/><path d="M242.9727,398.94H292.292V160.55a20.5813,20.5813,0,0,0-5.669-14.186l-28.8046-30.2813-1.2666,1.3321,1.22,8.6157,6.62,16.09a69.1552,69.1552,0,0,1,5.2031,26.3164V347.2534A63.4344,63.4344,0,0,1,242.9727,398.94Z" style="fill:#d8d8d8"/><path d="M114.499,398.94h49.6231V160.55a20.5813,20.5813,0,0,0-5.669-14.186l-28.8037-30.2813-.5869.6167,1.2285,8.68,6.6211,16.09a69.1718,69.1718,0,0,1,5.2022,26.3164v178.816A63.4013,63.4013,0,0,1,114.499,398.94Z" style="fill:#d8d8d8"/><path d="M419.7578,141.6392l-33.7695-35.5015-33.7656,35.5015a27.29,27.29,0,0,0-7.5586,18.9106v50.481h-45.52V160.55a27.32,27.32,0,0,0-7.5547-18.9106l-33.77-35.5015-33.7656,35.5015a27.3108,27.3108,0,0,0-7.5635,18.9106v50.481H170.9766V160.55a27.324,27.324,0,0,0-7.5586-18.9106l-33.77-35.5015L95.8779,141.6436A27.3063,27.3063,0,0,0,88.3232,160.55V405.7925h82.6534V368.52h45.5146v37.2725h82.6533V368.52h45.52v37.2725h82.6533V160.55A27.3245,27.3245,0,0,0,419.7578,141.6392ZM157.27,392.0845H102.0313V160.55a13.6682,13.6682,0,0,1,3.7792-9.4595l23.8379-25.06,23.8409,25.06a13.6692,13.6692,0,0,1,3.78,9.4595V392.0845Zm13.7071-79.4V266.8667h45.5146v45.8174Zm114.46,79.4H230.1992V160.55a13.6511,13.6511,0,0,1,3.7842-9.4595L257.82,126.03l23.8369,25.0551a13.6885,13.6885,0,0,1,3.7793,9.4644V392.0845Zm13.708-79.4V266.8667h45.52v45.8174Zm114.4649,79.4H358.3711V160.55a13.6522,13.6522,0,0,1,3.78-9.4595l23.8369-25.06L409.83,151.09a13.6728,13.6728,0,0,1,3.7793,9.4595Z" style="fill:#4d4d4d"/><path d="M500.7676,356.2158c-21.7373-.9946-69.19,10.0039-90.7608,49.6216l33.2842.0249a12.1653,12.1653,0,0,0,10.8281-6.7915c4.6416-9.168,16.8995-25.4648,47.6739-35.1875A3.9316,3.9316,0,0,0,500.7676,356.2158Z" style="fill:#4d4d4d"/><path d="M423.8633,405.8564a11.9977,11.9977,0,0,0,11.2646-7.7978c5.7725-15.376,21.81-49.7554,55.1817-69.1,5.49-3.1826,1.624-11.1724-3.9121-10.2407-23.1123,3.8891-89.27,28.5893-109.8223,87.0742Z" style="fill:#6abf58"/><path d="M400.1709,400.6348a125.7282,125.7282,0,0,1,13.7764-21.7784,155.2244,155.2244,0,0,1,41.1093-36.5878c1.5479-.9517,2.9737,1.455,1.6133,2.6518-21.18,18.624-39.2734,36.3784-52.083,60.9419l-6.7764-.0093C398.5605,404.0894,399.3369,402.3379,400.1709,400.6348Z" style="fill:#4d4d4d"/><path d="M11.2314,356.2129c21.7383-.9946,69.19,10.0039,90.7618,49.6216l-33.2852.0249a12.1651,12.1651,0,0,1-10.8271-6.7915C53.2393,389.9,40.9814,373.603,10.207,363.88A3.9316,3.9316,0,0,1,11.2314,356.2129Z" style="fill:#4d4d4d"/><path d="M88.1367,405.8535a11.9984,11.9984,0,0,1-11.2646-7.7978C71.1,382.6792,55.0625,348.3,21.69,328.9556c-5.49-3.1827-1.624-11.1724,3.9121-10.2408,23.1123,3.8892,89.2705,28.5894,109.8213,87.0743Z" style="fill:#6abf58"/><path d="M111.8291,400.6323a125.6936,125.6936,0,0,0-13.7764-21.7788,155.2246,155.2246,0,0,0-41.1093-36.5874c-1.5479-.9521-2.9737,1.4546-1.6133,2.6514,21.1787,18.624,39.2734,36.3784,52.083,60.9419l6.7754-.0093C113.44,404.0864,112.6631,402.335,111.8291,400.6323Z" style="fill:#4d4d4d"/><path d="M127.0459,168.09a3.7175,3.7175,0,0,0-3.582-2.7275c-3.8506.3872-8.3243.24-11.4619,2.7139-1.3,1.0254-.7959,3.2939.5185,4.021,3.2315,1.7851,7.3975.9326,10.9434.6943a3.7927,3.7927,0,0,0,3.7148-3.7144A4.8947,4.8947,0,0,0,127.0459,168.09Z" style="fill:#4d4d4d"/><path d="M118.0645,179.3936a9.72,9.72,0,0,0-4.0928,1.4946,2.7763,2.7763,0,0,0,.6533,5.0034,9.6824,9.6824,0,0,0,4.3564.2725C123.9287,185.65,123.02,178.4434,118.0645,179.3936Z" style="fill:#4d4d4d"/><path d="M115.8828,193.6465c-4.0762,0-4.083,6.3364,0,6.3364C119.96,199.9829,119.9668,193.6465,115.8828,193.6465Z" style="fill:#4d4d4d"/></g></svg>