<svg xmlns="http://www.w3.org/2000/svg" viewBox="0 0 512 512"><title>Fountain</title><g id="fountain_water_adorn_garden" data-name="fountain,water,adorn,garden"><path d="M187.1923,331.7476h140.129A27.1689,27.1689,0,0,1,354.49,358.9165v21.729a0,0,0,0,1,0,0H160.0234a0,0,0,0,1,0,0v-21.729A27.1689,27.1689,0,0,1,187.1923,331.7476Z" style="fill:#fff"/><path d="M235.809,286.2827h42.8946a27.1694,27.1694,0,0,1,27.1694,27.1694v17.1695a0,0,0,0,1,0,0H208.64a0,0,0,0,1,0,0V313.4521A27.1694,27.1694,0,0,1,235.809,286.2827Z" style="fill:#fff"/><path d="M384.8389,97.9316C290.0078,86.437,259.3965,136.34,257.1,140.3506c-2.2978-4.0108-32.9092-53.9136-127.74-42.419,0,0-75.9395,17.96-77.6319,88.3038,0,0,4.5088,21.623,21.2393,13.47,0,0,30.2-52.3838,96.0547-32.1783,0,0,81.5683,19.7452,73.3359,118.7554H271.84c-8.2314-99.01,73.3379-118.7554,73.3379-118.7554,65.8536-20.2055,96.0537,32.1783,96.0537,32.1783,16.7305,8.1528,21.2393-13.47,21.2393-13.47C460.7783,115.8916,384.8389,97.9316,384.8389,97.9316Z" style="fill:#fff"/><path d="M188.8379,346.7617c-7.4014.6895-9.374,9.1616-9.8955,15.2925-.3281,3.8477,5.5527,3.7554,5.958,0,.54-5.0029,1.6387-8.6333,5.1914-12.2651C191.0859,348.772,190.4326,346.6133,188.8379,346.7617Z" style="fill:#4d4d4d"/><path d="M201.7568,347.1079c-4.0234.66-5.832,5.4912-5.8017,9.08.0283,3.5176,5.6094,3.5039,5.4541,0-.1172-2.6543,1.2744-4.2017,2.3711-6.4468A1.8184,1.8184,0,0,0,201.7568,347.1079Z" style="fill:#4d4d4d"/><path d="M217.5771,349.9062a2.9008,2.9008,0,0,0-5.08,2.0044,2.3519,2.3519,0,0,0,1.6728,2.1983,3.0394,3.0394,0,0,0,1.4678.0537A2.5842,2.5842,0,0,0,217.5771,349.9062Z" style="fill:#4d4d4d"/><path d="M363.2383,140.916a104.9206,104.9206,0,0,0-79.8906,28.7163,126.1664,126.1664,0,0,0-17.7325,21.1323,12.2863,12.2863,0,0,1-20.456,0,126.0758,126.0758,0,0,0-17.7324-21.1323,104.9187,104.9187,0,0,0-79.89-28.7163C107.7334,143.8735,89.04,169.1914,80.34,189.9614c12.5635-14.08,41.45-36.9258,88.6817-22.4341,0,0,81.5683,19.7452,73.3359,118.7554H271.84c-8.2314-99.01,73.3379-118.7554,73.3379-118.7554,40.4981-12.4257,67.4922,2.5987,82.2911,16.0123C417.7236,164.293,399.0068,143.5737,363.2383,140.916Z" style="fill:#d8d8d8"/><path d="M278.7041,286.2827H252.3154l-7.1738,1.1079s27.1211,8.5606,27.1211,43.2305h33.61V313.4517A27.1691,27.1691,0,0,0,278.7041,286.2827Z" style="fill:#d8d8d8"/><path d="M315.9277,380.6455H354.49V358.917a27.1693,27.1693,0,0,0-27.17-27.1694H293.0361S315.9609,340.52,315.9277,380.6455Z" style="fill:#d8d8d8"/><path d="M471.9883,178.791c-4.8447-25.063-21.2822-68.7114-76.918-85.084-28.9609-8.5127-61.081-7.3525-90.4287,3.2915-20.6182,7.4751-36.5068,17.77-47.3857,30.6729-10.88-12.9028-26.7686-23.1978-47.3819-30.6729-29.3476-10.644-61.4638-11.8042-90.4385-3.2915-55.5722,16.355-72.0341,59.9287-76.8974,85.0039a24.3078,24.3078,0,0,0,2.1172,16.0264,24.1523,24.1523,0,0,0,41.792,1.5894c7.2763-12.0992,18.8222-20.2154,34.3164-24.2784a28.5721,28.5721,0,0,0,3.3213,35.1866c9.31,9.6914,24.0664,11.4316,35.89,4.2539a48.6826,48.6826,0,0,1,22.1094-7.1558c25.1553-1.7788,46.7832,17.0537,51.5264,41.8218A128.3017,128.3017,0,0,1,235.51,279.16a36.4743,36.4743,0,0,0-34.1153,36.3359v7.88H189.2363a36.5,36.5,0,0,0-36.459,36.459v13.5683h-.18a36.4974,36.4974,0,0,0-36.4541,36.4546v14.0156H398.3721V409.8579a36.4993,36.4993,0,0,0-36.46-36.4546h-.1787V359.835a36.5,36.5,0,0,0-36.459-36.459H313.1162v-7.88a36.473,36.473,0,0,0-34.1318-36.3369,127.3038,127.3038,0,0,1,1.8457-32.96c4.7246-24.7656,26.3193-43.5762,51.4736-41.87a48.668,48.668,0,0,1,22.2373,7.1548c11.81,7.1826,26.5654,5.4424,35.8848-4.2446a28.574,28.574,0,0,0,3.3193-35.1924c15.499,4.0625,27.0449,12.18,34.3135,24.28a24.1659,24.1659,0,0,0,41.793-1.5616A24.1966,24.1966,0,0,0,471.9883,178.791ZM313.1162,337.8633h12.1582a21.9966,21.9966,0,0,1,21.9717,21.9717v13.5683H167.2646V359.835a21.9966,21.9966,0,0,1,21.9717-21.9717h123.88Zm-14.4873-22.3677v7.88H215.8818v-7.88a21.9957,21.9957,0,0,1,21.9717-21.9673h38.8086A21.9946,21.9946,0,0,1,298.6289,315.4956ZM455.9063,189.6772a9.5,9.5,0,0,1-7.3282,3.4429,9.3609,9.3609,0,0,1-8.0976-4.2539c-10.7051-17.8076-29.0078-29.1968-52.9268-32.9272a103.1716,103.1716,0,0,0-18.0264-1.1006,107.0187,107.0187,0,0,0-21.7519,2.6689,108.5094,108.5094,0,0,0-39.1016,17.6118,101.5964,101.5964,0,0,0-28.4931,31.2246,112.7088,112.7088,0,0,0-12.3252,30.6924,139.77,139.77,0,0,0-3.4512,42.0044H250.1055a139.6668,139.6668,0,0,0-3.417-41.8882A112.7324,112.7324,0,0,0,234.33,206.3389a101.5776,101.5776,0,0,0-28.4883-31.22,108.5088,108.5088,0,0,0-39.123-17.61,107.1355,107.1355,0,0,0-21.7295-2.6651,103.4416,103.4416,0,0,0-18.0323,1.0953c-23.9189,3.7353-42.2168,15.12-52.9267,32.9272a9.3609,9.3609,0,0,1-8.0977,4.2539,9.5025,9.5025,0,0,1-7.3242-3.438,8.9978,8.9978,0,0,1-1.9756-7.5268c4.961-26.49,20.5947-60.9258,66.8916-74.5459,26.0361-7.6538,54.95-6.5928,81.4072,3.0088,21.7969,7.9043,37.336,19.0576,46.1885,33.144l6.1358,9.7622,6.1347-9.7622c8.8526-14.0864,24.3916-25.24,46.1934-33.144,26.4609-9.5967,55.37-10.6675,81.3974-3.0088,46.3018,13.62,61.9356,48.0561,66.8965,74.5459A8.998,8.998,0,0,1,455.9063,189.6772Z" style="fill:#4d4d4d"/><path d="M43.4824,371.4575c22.9746-1.0508,73.125,10.5733,95.9229,52.4444l-35.1768.0258a12.8565,12.8565,0,0,1-11.4433-7.1772c-4.9063-9.69-17.8614-26.9136-50.3848-37.19A4.155,4.155,0,0,1,43.4824,371.4575Z" style="fill:#4d4d4d"/><path d="M124.7607,423.9219a12.6789,12.6789,0,0,1-11.9043-8.2417c-6.1015-16.25-23.0507-52.585-58.32-73.03-5.8027-3.3633-1.7158-11.8076,4.1348-10.8228,24.4268,4.11,94.3486,30.2154,116.0674,92.0264Z" style="fill:#6abf58"/><path d="M149.8008,418.4033a132.84,132.84,0,0,0-14.56-23.0171A164.0279,164.0279,0,0,0,91.793,356.7178c-1.6348-1.0064-3.1416,1.5376-1.7041,2.8022,22.3838,19.6831,41.5078,38.4473,55.0449,64.4077l7.1611-.01C151.5039,422.0542,150.6826,420.2036,149.8008,418.4033Z" style="fill:#4d4d4d"/><path d="M468.5176,371.4575c-22.9746-1.0508-73.125,10.5733-95.9229,52.4444l35.1768.0258a12.8565,12.8565,0,0,0,11.4433-7.1772c4.9063-9.69,17.8614-26.9136,50.3848-37.19A4.155,4.155,0,0,0,468.5176,371.4575Z" style="fill:#4d4d4d"/><path d="M387.2393,423.9219a12.682,12.682,0,0,0,11.9052-8.2417c6.1006-16.25,23.05-52.585,58.3194-73.03,5.8027-3.3633,1.7158-11.8076-4.1348-10.8228-24.4268,4.11-94.3477,30.2154-116.0674,92.0264Z" style="fill:#6abf58"/><path d="M362.1992,418.4033a132.84,132.84,0,0,1,14.56-23.0171,164.0382,164.0382,0,0,1,43.4473-38.6684c1.6357-1.0064,3.1425,1.5376,1.705,2.8022-22.3838,19.6831-41.5078,38.4473-55.0449,64.4077l-7.1611-.01C360.4961,422.0542,361.3174,420.2036,362.1992,418.4033Z" style="fill:#4d4d4d"/></g></svg>