<svg xmlns="http://www.w3.org/2000/svg" viewBox="0 0 512 512"><title>Garden_Lamp</title><g id="garden_lamp_adorn_garden" data-name="garden lamp,adorn,garden"><path d="M146.856,452.248c22.9741-1.0507,73.1254,10.5733,95.9228,52.4444l-35.1772.0259a12.8567,12.8567,0,0,1-11.4429-7.1773c-4.9063-9.6894-17.8613-26.9136-50.3853-37.1894A4.1552,4.1552,0,0,1,146.856,452.248Z" style="fill:#4d4d4d"/><path d="M228.1343,504.7124a12.6808,12.6808,0,0,1-11.9048-8.2417c-6.1011-16.2505-23.05-52.585-58.32-73.03-5.8028-3.3633-1.7163-11.8076,4.1347-10.8227,24.4263,4.11,94.3482,30.2153,116.0674,92.0263Z" style="fill:#6abf58"/><path d="M253.1743,499.0342a132.7622,132.7622,0,0,0-14.56-23.0176,164.0349,164.0349,0,0,0-43.4473-38.6685c-1.6357-1.0058-3.1421,1.5381-1.7051,2.8023,22.3843,19.6831,41.5078,38.4477,55.0454,64.4082l7.1612-.01C254.877,502.6846,254.0557,500.834,253.1743,499.0342Z" style="fill:#4d4d4d"/><path d="M330.1133,86.7544A104.8593,104.8593,0,0,1,301.939,51.8569a16.4239,16.4239,0,0,0-14.7461-9.34h-55.875a16.4239,16.4239,0,0,0-14.7466,9.34,104.8564,104.8564,0,0,1-28.1738,34.8975c-10.8985,8.9048-4.146,25.2944,10.5112,25.2944H319.6021C334.2588,112.0488,341.0112,95.6592,330.1133,86.7544Z" style="fill:#fff"/><path d="M259.2554,112.0488H198.9087l19.4477,108.8067a14.8267,14.8267,0,0,0,14.5948,12.2173h52.6079a14.8258,14.8258,0,0,0,14.5947-12.2173l19.4483-108.8067Z" style="fill:#fff"/><rect x="240.3984" y="232.9751" width="37.7134" height="264.4922" style="fill:#fff"/><path d="M231.6973,57.13c-1.7583,1.1528-2.5113,2.9-3.5679,4.6577-1.0952,1.8223-2.25,3.6133-3.4644,5.3574-2.0249,3.707,3.333,6.79,5.6319,3.2925,1.8969-2.8867,5.4179-7.6441,4.9487-11.2715C235.0347,57.5386,233.36,56.04,231.6973,57.13Z" style="fill:#4d4d4d"/><path d="M241.2793,58.7466a15.9547,15.9547,0,0,0-2.5151,4.3218c-1.3365,2.98,3.1054,5.559,4.3979,2.57.9067-2.0972,1.3921-4.4473.4282-6.5943A1.48,1.48,0,0,0,241.2793,58.7466Z" style="fill:#4d4d4d"/><path d="M250.2671,59.6553c-2.4077,1.0473-.4492,4.7851,1.8281,3.4541C254.2114,61.873,252.4717,58.6963,250.2671,59.6553Z" style="fill:#4d4d4d"/><path d="M330.1133,86.7544A104.8457,104.8457,0,0,1,301.94,51.8564a16.4247,16.4247,0,0,0-14.7466-9.3393h-7.7378c3.1411,13.99,7.2807,53.8667-41.5962,69.5317h81.7432C334.2588,112.0488,341.0112,95.6592,330.1133,86.7544Z" style="fill:#d8d8d8"/><path d="M260.4014,115.3638s13.2168,67.0161-12.7593,113.459v4.25h37.917a14.8258,14.8258,0,0,0,14.5947-12.2173l18.8555-105.4912Z" style="fill:#d8d8d8"/><path d="M334.6968,81.1436v.0043a97.37,97.37,0,0,1-26.2422-32.46,23.5185,23.5185,0,0,0-20.8067-13.3848V29.2109a21.9544,21.9544,0,0,0-21.93-21.9292H252.792a21.954,21.954,0,0,0-21.9292,21.9292v6.0923A23.5192,23.5192,0,0,0,210.0557,48.688a97.31,97.31,0,0,1-26.2422,32.4556c-7.2364,5.9135-9.8516,14.87-6.8194,23.3725a22.1287,22.1287,0,0,0,15.7041,13.9561l18.5269,103.6557a22.05,22.05,0,0,0,21.727,18.1895h.2027V504.71H285.356V240.3174h.2026a22.0493,22.0493,0,0,0,21.7266-18.1895L325.812,118.4722a22.1287,22.1287,0,0,0,15.7041-13.9561C344.5488,96.0132,341.9336,87.0571,334.6968,81.1436Zm-109.21,138.4375-16.3091-91.2588h18.4644l12.1265,97.4087h-6.6133v.0991h-.2027A7.5761,7.5761,0,0,1,225.4863,219.5811Zm16.7525-91.2588H278.564L266.44,225.731H254.3652Zm28.6294,361.9H247.6421V271.5371h23.2261Zm22.1557-270.6411a7.5755,7.5755,0,0,1-7.4653,6.249h-.2026v-.0991h-4.3189l12.124-97.4087H309.333ZM327.8706,99.6489c-.8892,2.49-3.5278,5.1548-8.27,5.1548H198.91c-4.7422,0-7.3809-2.6645-8.27-5.1548-.5542-1.5512-.9882-4.5649,2.3413-7.2861a111.9326,111.9326,0,0,0,30.1045-37.3364,9.1475,9.1475,0,0,1,8.1993-5.2632h55.94a9.1468,9.1468,0,0,1,8.1987,5.2632,111.9417,111.9417,0,0,0,30.1045,37.3364v.0049C328.8584,95.084,328.4248,98.0977,327.8706,99.6489Z" style="fill:#4d4d4d"/><path d="M365.144,452.248c-22.9741-1.0507-73.1254,10.5733-95.9228,52.4444l35.1772.0259a12.8567,12.8567,0,0,0,11.4429-7.1773c4.9063-9.6894,17.8613-26.9136,50.3853-37.1894A4.1552,4.1552,0,0,0,365.144,452.248Z" style="fill:#4d4d4d"/><path d="M283.8657,504.7124a12.6808,12.6808,0,0,0,11.9048-8.2417c6.1011-16.2505,23.05-52.585,58.32-73.03,5.8028-3.3633,1.7163-11.8076-4.1347-10.8227-24.4263,4.11-94.3482,30.2153-116.0674,92.0263Z" style="fill:#6abf58"/><path d="M258.8257,499.0342a132.7622,132.7622,0,0,1,14.56-23.0176,164.0349,164.0349,0,0,1,43.4473-38.6685c1.6358-1.0058,3.1421,1.5381,1.7051,2.8023-22.3843,19.6831-41.5078,38.4477-55.0454,64.4082l-7.1612-.01C257.1226,502.6846,257.9443,500.834,258.8257,499.0342Z" style="fill:#4d4d4d"/></g></svg>