<svg xmlns="http://www.w3.org/2000/svg" viewBox="0 0 512 512"><title>Gazebo</title><g id="gazebo_pavilion_garden" data-name="gazebo pavilion,garden"><path d="M102.9771,60.3931h309.349a11.0147,11.0147,0,0,1,11.0147,11.0147V85.27a11.0151,11.0151,0,0,1-11.0151,11.0151H102.9765A11.0146,11.0146,0,0,1,91.9619,85.27V71.4083a11.0152,11.0152,0,0,1,11.0152-11.0152Z" style="fill:#fff"/><rect x="127.9253" y="96.2847" width="259.4517" height="28.7588" style="fill:#fff"/><path d="M128.6855,401.0591H386.4922a16.3262,16.3262,0,0,1,16.3262,16.3262v13.0576a0,0,0,0,1,0,0h-290.46a0,0,0,0,1,0,0V417.3857A16.3266,16.3266,0,0,1,128.6855,401.0591Z" style="fill:#d8d8d8"/><path d="M122.6231,125.0435H181.667a10.2646,10.2646,0,0,1,10.2646,10.2646v18.2154a10.2646,10.2646,0,0,1-10.2646,10.2646H122.6235a10.2646,10.2646,0,0,1-10.2646-10.2646V135.3077A10.2642,10.2642,0,0,1,122.6231,125.0435Z" style="fill:#fff"/><rect x="127.8003" y="163.7881" width="48.6899" height="237.271" style="fill:#fff"/><path d="M333.9278,125.0435h59.043a10.2646,10.2646,0,0,1,10.2646,10.2646v18.2154a10.2646,10.2646,0,0,1-10.2646,10.2646h-59.043a10.2647,10.2647,0,0,1-10.2647-10.2647V135.3082A10.2647,10.2647,0,0,1,333.9278,125.0435Z" style="fill:#fff"/><rect x="339.1045" y="163.7881" width="48.6894" height="237.271" style="fill:#fff"/><path d="M312.1035,96.2847H286.2578s-4.7822,18.1137-15.6074,28.7588H387.377V96.2847Z" style="fill:#d8d8d8"/><path d="M412.3262,60.3931H338.8828c-1.0351,10.3725-5.8535,28.9848-26.7793,35.8916H412.3262A11.0154,11.0154,0,0,0,423.3408,85.27V71.4082A11.015,11.015,0,0,0,412.3262,60.3931Z" style="fill:#d8d8d8"/><path d="M349.3105,161.3677s28.0743.8589,48.8711.9546a10.2226,10.2226,0,0,0,5.0538-8.7989V135.3076a10.2642,10.2642,0,0,0-10.2637-10.2641H376.4189S384.5518,157.5723,349.3105,161.3677Z" style="fill:#d8d8d8"/><path d="M137.91,161.3677s28.1606.8613,48.9668.9546a10.2219,10.2219,0,0,0,5.0551-8.7989V135.3076a10.2639,10.2639,0,0,0-10.2641-10.2641H165.0181S173.15,157.5723,137.91,161.3677Z" style="fill:#d8d8d8"/><rect x="155.7676" y="163.7881" width="20.7226" height="235.9248" style="fill:#d8d8d8"/><rect x="363.4492" y="163.7881" width="24.3447" height="235.9248" style="fill:#d8d8d8"/><path d="M410.0645,423.2769v-5.89a23.5619,23.5619,0,0,0-15.0254-21.9082V170.8247a17.4732,17.4732,0,0,0,15.4394-17.3013V135.31A17.4711,17.4711,0,0,0,394.62,117.9663v-14.437h17.708A18.28,18.28,0,0,0,430.584,85.2686v-13.86a18.28,18.28,0,0,0-18.2559-18.26H102.9766a18.28,18.28,0,0,0-18.2578,18.26v13.86a18.2807,18.2807,0,0,0,18.2578,18.2607h17.706v14.4668a17.4738,17.4738,0,0,0-15.5683,17.314v18.2133a17.4756,17.4756,0,0,0,15.4423,17.3013V395.3491a23.5415,23.5415,0,0,0-15.4423,22.0381v5.89a28.41,28.41,0,0,0-26.8272,28.32v7.2436H436.8887v-7.2436A28.4077,28.4077,0,0,0,410.0645,423.2769ZM135.0439,171.0337H176.49V393.8169H135.0439Zm68.4483-.2832a19.4185,19.4185,0,0,0,16.0859-19.1089V132.2871h76.44v19.3545a19.4167,19.4167,0,0,0,16.0859,19.1089V393.8169H203.4922Zm135.6123.2832h41.4473V393.8169H339.1045ZM395.9912,135.31v18.2133a3.0251,3.0251,0,0,1-3.0176,3.023H333.9287a3.0635,3.0635,0,0,1-3.0224-3.023V135.31a3.0626,3.0626,0,0,1,3.0224-3.023h59.0449A3.0251,3.0251,0,0,1,395.9912,135.31ZM102.9766,89.0415a3.7756,3.7756,0,0,1-3.77-3.7729v-13.86a3.7756,3.7756,0,0,1,3.77-3.773H412.3281a3.7739,3.7739,0,0,1,3.7686,3.773v13.86a3.7739,3.7739,0,0,1-3.7686,3.7729H102.9766Zm277.1562,14.4878V117.8H135.17v-14.27ZM119.6016,153.5234V135.31a3.0277,3.0277,0,0,1,3.0229-3.023h59.042a3.0626,3.0626,0,0,1,3.02,3.023v18.2133a3.0626,3.0626,0,0,1-3.02,3.023h-59.042A3.0277,3.0277,0,0,1,119.6016,153.5234Zm0,263.8638a9.0934,9.0934,0,0,1,9.083-9.083H386.4932a9.0931,9.0931,0,0,1,9.083,9.083v5.81H119.6016Z" style="fill:#4d4d4d"/><path d="M499.5469,412.9492c-20.0987-.9194-63.9717,9.25-83.916,45.88l30.7744.0225a11.2483,11.2483,0,0,0,10.0107-6.2788c4.291-8.4766,15.625-23.5445,44.0781-32.5342A3.6352,3.6352,0,0,0,499.5469,412.9492Z" style="fill:#4d4d4d"/><path d="M428.4424,458.8467a11.0948,11.0948,0,0,0,10.415-7.21c5.3369-14.2168,20.1651-46.0029,51.02-63.8891,5.0761-2.9424,1.5019-10.33-3.6172-9.4683-21.3692,3.5957-82.5381,26.4336-101.5391,80.5073Z" style="fill:#6abf58"/><path d="M406.5361,453.8789a116.2341,116.2341,0,0,1,12.7383-20.1362,143.493,143.493,0,0,1,38.0088-33.8281c1.4307-.88,2.749,1.3452,1.4912,2.4511-19.582,17.22-36.3115,33.6353-48.1553,56.3462l-6.2646-.0083C405.0469,457.0728,405.7656,455.4536,406.5361,453.8789Z" style="fill:#4d4d4d"/><path d="M12.4531,412.9492c20.0982-.9194,63.9722,9.25,83.916,45.88l-30.7739.0225a11.2471,11.2471,0,0,1-10.0107-6.2788c-4.292-8.4766-15.6255-23.5445-44.0786-32.5342A3.6351,3.6351,0,0,1,12.4531,412.9492Z" style="fill:#4d4d4d"/><path d="M83.5576,458.8467a11.0936,11.0936,0,0,1-10.4145-7.21c-5.3374-14.2168-20.1656-46.0029-51.02-63.8891-5.0766-2.9424-1.5014-10.33,3.6172-9.4683,21.3692,3.5957,82.5381,26.4336,101.54,80.5073Z" style="fill:#6abf58"/><path d="M105.4634,453.8789a116.1992,116.1992,0,0,0-12.7373-20.1362,143.5027,143.5027,0,0,0-38.0093-33.8281c-1.4307-.88-2.7485,1.3452-1.4912,2.4511,19.582,17.22,36.312,33.6353,48.1548,56.3462l6.2651-.0083C106.9531,457.0728,106.2344,455.4536,105.4634,453.8789Z" style="fill:#4d4d4d"/></g></svg>