<svg xmlns="http://www.w3.org/2000/svg" viewBox="0 0 512 512"><title>Grass_Scissors</title><g id="grass_scissors_grass_tool_garden" data-name="grass scissors,grass,tool,garden"><path d="M456.4453,424.856c-22.9746-1.0508-73.125,10.5732-95.9228,52.4443l35.1767.0259a12.8574,12.8574,0,0,0,11.4434-7.1773c4.9062-9.6894,17.8613-26.9135,50.3857-37.1894A4.1552,4.1552,0,0,0,456.4453,424.856Z" style="fill:#4d4d4d"/><path d="M375.167,477.32a12.68,12.68,0,0,0,11.9043-8.2417c6.1016-16.25,23.0508-52.5849,58.32-73.03,5.8027-3.3632,1.7158-11.8076-4.1348-10.8227-24.4267,4.11-94.3486,30.2153-116.0673,92.0264Z" style="fill:#6abf58"/><path d="M350.127,471.6416a132.7984,132.7984,0,0,1,14.56-23.0171,164.0467,164.0467,0,0,1,43.4473-38.6684c1.6357-1.0059,3.1426,1.5376,1.7051,2.8022-22.3838,19.6831-41.5078,38.4478-55.045,64.4077l-7.1611-.01C348.4238,475.2925,349.2451,473.4419,350.127,471.6416Z" style="fill:#4d4d4d"/><path d="M150.0352,424.856c22.9736-1.0508,73.125,10.5732,95.9228,52.4443l-35.1777.0259a12.857,12.857,0,0,1-11.4424-7.1773c-4.9063-9.6894-17.8613-26.9135-50.3858-37.1894A4.1551,4.1551,0,0,1,150.0352,424.856Z" style="fill:#4d4d4d"/><path d="M231.3135,477.32a12.6817,12.6817,0,0,1-11.9053-8.2417c-6.1006-16.25-23.05-52.5849-58.3193-73.03-5.8028-3.3632-1.7168-11.8076,4.1347-10.8227,24.4268,4.11,94.3477,30.2153,116.0674,92.0264Z" style="fill:#6abf58"/><path d="M256.3535,471.6416a132.8034,132.8034,0,0,0-14.56-23.0171,164.0173,164.0173,0,0,0-43.4473-38.6684c-1.6357-1.0059-3.1416,1.5376-1.7051,2.8022,22.3848,19.6831,41.5078,38.4478,55.0459,64.4077l7.1612-.01C258.0566,475.2925,257.2344,473.4419,256.3535,471.6416Z" style="fill:#4d4d4d"/><path d="M295.4111,461.4585h0L241.0879,56.8774a17.1376,17.1376,0,0,0-19.2656-14.7041h0a17.1376,17.1376,0,0,0-14.7041,19.2652l45.79,341.0307A77.1155,77.1155,0,0,0,295.4111,461.4585Z" style="fill:#d8d8d8"/><path d="M272.0957,233.375l.001,0-14.22-105.89L248.2676,55.917l-.002-.0083-.1074-.794a23.6052,23.6052,0,0,0-26.4941-20.2314l-1.6036.2173A23.6005,23.6005,0,0,0,199.834,61.6045l23.9336,178.2593.001,0,21.9619,163.57a84.195,84.195,0,0,0,46.4941,64.5288l12.1719,5.9658Zm-12.01,168.1338L238.124,237.936l19.6143-2.6333,28.4453,211.8662A69.74,69.74,0,0,1,260.0859,401.5088Z" style="fill:#4d4d4d"/><path d="M361.123,431.2358s14.9805-27.8266,2.3116-71.3164a55.3938,55.3938,0,0,0-13.5567-23.0571L272.77,257.6353s-34.48,13.4292-59.7441-8.628L81.1777,131.5283a13.41,13.41,0,0,0-13.3164-2.6572h0a13.41,13.41,0,0,0-4.7851,22.4438Z" style="fill:#fff"/><path d="M222.1143,300.6812h0L361.123,431.2363s5.6124-11.7187,5.9981-32.2607l-89.7139-89.5777C263.0146,295.0278,238.7188,290.9229,222.1143,300.6812Z" style="fill:#6abf58"/><path d="M370.3887,357.8955a62.7682,62.7682,0,0,0-15.3194-26.0864l-77.11-79.2266-3.3457-3.4116-4.457,1.7061c-.3067.12-30.8125,11.4946-52.3106-7.28l-106.22-94.6431L86,126.1191c-.2471-.22-.5215-.3964-.7773-.603a20.6354,20.6354,0,0,0-18.0118-3.9585c-.5761.1455-1.1552.2735-1.7226.47-.0078.0025-.0137.0074-.02.0093a20.8843,20.8843,0,0,0-3.3291,1.5347c-.1289.0727-.28.1133-.4082.1885-.1123.0659-.2012.1616-.3116.2294a20.4234,20.4234,0,0,0-2.9951,2.2056c-.1211.1094-.2265.2315-.3447.3428a20.39,20.39,0,0,0-2.2988,2.5771c-.125.1656-.2588.3194-.3789.4893a20.4062,20.4062,0,0,0-1.84,3.209c-.11.2363-.2051.477-.3056.7182a20.8411,20.8411,0,0,0-1.1973,3.6934,20.51,20.51,0,0,0,6.0557,19.373L192.5664,282.8735l.0029-.0048L363.0352,442.9663l4.4668-8.2969C368.1729,433.4272,383.7334,403.7041,370.3887,357.8955ZM358.1025,418.46,200.541,270.48l9.4326-14.66c22.4258,18.1524,49.875,13.1407,60.7325,10.0835l73.9794,76.0122a48.2172,48.2172,0,0,1,11.794,20.0308C363.9668,387.6528,361.1055,407.5337,358.1025,418.46Z" style="fill:#4d4d4d"/><path d="M246.0352,286.6235a7.3757,7.3757,0,1,1,10.0957,2.6221A7.3749,7.3749,0,0,1,246.0352,286.6235Z" style="fill:#4d4d4d"/></g></svg>