<svg xmlns="http://www.w3.org/2000/svg" viewBox="0 0 512 512"><title>Grass</title><g id="grass_plant" data-name="grass,plant"><path d="M81.5771,272.9082c27.8018-2.61,87.3448-.104,103.8829,65.3731H113.3682s1.09-35.2525-33.8418-56.8218A4.649,4.649,0,0,1,81.5771,272.9082Z" style="fill:#4d4d4d"/><path d="M181.01,338.2813s-11.73-93.0494,34.0732-162.25a5.07,5.07,0,0,1,9.3252,2.8291c-.6484,32.4732,1.1914,106.5005,27.8027,159.42Z" style="fill:#4d4d4d"/><path d="M205.93,338.2813s99.4219-72.1363,121.5137-147.5591c1.3359-4.5606,7.9736-4.0713,8.748.6176,5.4668,33.1109,8.28,98.2271-39.4785,146.9415Z" style="fill:#4d4d4d"/><path d="M385.4717,332.5747c4.1523-13.9976,17.3935-50.6894,47.7119-75.3935a3.8656,3.8656,0,0,0-3.0664-6.8272c-25.8213,4.3931-79.2627,21.48-109.4609,87.9273h57.2158A7.9368,7.9368,0,0,0,385.4717,332.5747Z" style="fill:#4d4d4d"/><path d="M255.3262,338.2813S342.2852,287.7148,375.1,207.1968a5.033,5.033,0,0,1,9.7,1.3252c3.1973,31.9389,2.8232,93.4126-39.581,129.7593Z" style="fill:#6abf58"/><path d="M255.3262,338.2813h37.2129a133.8548,133.8548,0,0,1,1.2744-28.1026A375.62,375.62,0,0,1,255.3262,338.2813Z" style="fill:#4d4d4d"/><path d="M214.4922,338.2813s-12.5928-99.1661,68.4258-162.43a5.8345,5.8345,0,0,1,9.0634,6.54c-10.1962,28.8433-24.5224,88.8511-.0576,155.8907Z" style="fill:#6abf58"/><path d="M223.0342,331.5132c4.6318-24.8443-1.3311-48.65-3.7412-56.7852-8.5625,35.3335-4.8008,63.5533-4.8008,63.5533h8.2285Z" style="fill:#4d4d4d"/><path d="M97.6035,199.0581c34.7617,2.81,109.3115,22.68,129.2422,139.2232H159.2041s-1.18-69.21-66.3809-128.1534A6.3755,6.3755,0,0,1,97.6035,199.0581Z" style="fill:#6abf58"/><path d="M152.3223,241.8213c-1.7032-1.9287-4.8145.5547-3.5264,2.72,9.4668,15.9131,19.0811,30.94,25.6982,48.3872,5.6446,14.8843,8.4229,30.0449,12.0245,45.3526h5.8935C190.7891,305.0879,173.8828,266.2349,152.3223,241.8213Z" style="fill:#4d4d4d"/><path d="M249.458,290.8633c.9893-18.4492,5.7285-35.6782,10.2568-53.4356.5645-2.2138-2.68-3.748-3.7919-1.5991-9.3624,18.085-13.01,39.0889-13.5772,59.3-.3594,12.7881-.5059,29.6734,4.2109,43.1529H252.87C248.55,323.3027,248.6729,305.4873,249.458,290.8633Z" style="fill:#4d4d4d"/><path d="M263.1113,226.11a64.8761,64.8761,0,0,0,7.5117-14.4317.9878.9878,0,0,0-1.64-.9546,36.7668,36.7668,0,0,0-7.8379,14.5577,1.0808,1.0808,0,0,0,1.9658.8286Z" style="fill:#4d4d4d"/><path d="M343.9473,298.3252c-7.89,9.04-14.68,18.9536-23.0254,27.6191a139.4,139.4,0,0,1-13.9649,12.337h13.7823c11.8427-10.8624,21.7714-24.6675,26.3925-38.1021A1.9187,1.9187,0,0,0,343.9473,298.3252Z" style="fill:#4d4d4d"/><path d="M369.751,239.7148c-2.2373,7.0245-4.4473,14.0586-7.2422,20.8868-2.4912,6.0849-5.9561,11.8418-7.9326,18.1069a1.5773,1.5773,0,0,0,2.6172,1.5234c9.5029-10.018,14.0254-26.7641,15.3359-40.1411.1621-1.647-2.3154-1.8315-2.7783-.376Z" style="fill:#4d4d4d"/></g></svg>