<svg xmlns="http://www.w3.org/2000/svg" viewBox="0 0 512 512"><title>Hose</title><g id="hose_watering" data-name="hose,watering"><path d="M394.5488,334.8311v74.1123a8.6,8.6,0,0,0,8.6006,8.6005H428.333a8.6,8.6,0,0,0,8.6006-8.6005V243.2822H420.9688C419.72,262.4648,414.64,300.7876,394.5488,334.8311Z" style="fill:#4d4d4d"/><path d="M254.1914,151.2334a94.4258,94.4258,0,1,0,94.4238,94.4282A94.5331,94.5331,0,0,0,254.1914,151.2334Zm0,161.8a67.3745,67.3745,0,1,1,67.375-67.3745A67.374,67.374,0,0,1,254.1914,313.0337Z" style="fill:#6abf58"/><path d="M254.1914,62.917A182.742,182.742,0,1,0,436.9336,245.6592,182.7421,182.7421,0,0,0,254.1914,62.917Zm0,336.91c-85.0078,0-154.167-69.16-154.167-154.1655,0-85.01,69.1592-154.17,154.167-154.17s154.166,69.16,154.166,154.17C408.3574,330.667,339.2,399.8271,254.1914,399.8271Z" style="fill:#6abf58"/><path d="M254.1914,105.9785c-77.0185,0-139.68,62.6616-139.68,139.6831,0,77.0166,62.6612,139.6778,139.68,139.6778S393.87,322.6782,393.87,245.6616C393.87,168.64,331.2109,105.9785,254.1914,105.9785Zm0,248.5938A108.9131,108.9131,0,1,1,363.1025,245.6616,109.035,109.035,0,0,1,254.1914,354.5723Z" style="fill:#6abf58"/><path d="M247.3432,52.97H261.041a11.0967,11.0967,0,0,1,11.0967,11.0967V174.98a11.0972,11.0972,0,0,1-11.0972,11.0972H247.3438A11.0977,11.0977,0,0,1,236.2461,174.98V64.0668A11.0971,11.0971,0,0,1,247.3432,52.97Z" style="fill:#fff"/><path d="M415.7412,399.5029H404.2881a6.1134,6.1134,0,0,0-6.0586,6.9253l6.126,45.6665a7.9976,7.9976,0,0,0,7.9267,6.9346H419.2a7.9962,7.9962,0,0,0,7.9268-6.9346l6.1259-45.6665a6.1134,6.1134,0,0,0-6.0586-6.9253Z" style="fill:#fff"/><path d="M419.2,466.2725h-6.918a15.2889,15.2889,0,0,1-15.1074-13.2139l-6.126-45.6694a13.3563,13.3563,0,0,1,13.24-15.1289h22.9052a13.3577,13.3577,0,0,1,13.2373,15.1333l-6.123,45.665A15.2907,15.2907,0,0,1,419.2,466.2725Zm-13.6191-59.5249,5.9541,44.3867a.7523.7523,0,0,0,.747.6509H419.2a.7533.7533,0,0,0,.748-.6509l5.9512-44.3867Z" style="fill:#4d4d4d"/><path d="M261.04,52.97h-6.8486V186.0771H261.04a11.0973,11.0973,0,0,0,11.0977-11.0966V64.0669A11.0975,11.0975,0,0,0,261.04,52.97Z" style="fill:#d8d8d8"/><path d="M261.0391,193.3237H247.3418a18.3631,18.3631,0,0,1-18.34-18.3452V64.0679a18.3614,18.3614,0,0,1,18.34-18.34h13.6973a18.3639,18.3639,0,0,1,18.3427,18.34V174.9785A18.3656,18.3656,0,0,1,261.0391,193.3237ZM247.3418,60.2148a3.8586,3.8586,0,0,0-3.8525,3.8531V174.9785a3.86,3.86,0,0,0,3.8525,3.8574h13.6973a3.86,3.86,0,0,0,3.8554-3.8574V64.0679a3.8592,3.8592,0,0,0-3.8554-3.8531Z" style="fill:#4d4d4d"/></g></svg>