<svg xmlns="http://www.w3.org/2000/svg" viewBox="0 0 512 512"><title>Mahogany_Tree</title><g id="mahogany_tree" data-name="mahogany,tree"><path d="M198.1553,282.0137h120.437s9.9927,38.9184-42.0737,54.6963V495.0137H242.2373V334.479S201.311,327.77,198.1553,282.0137Z" style="fill:#fff"/><path d="M253.89,495.0137h22.6285V336.71c52.0664-15.7779,42.0737-54.6963,42.0737-54.6963H239.9956l5.4258,20.0771a54.8038,54.8038,0,0,0,18.0342,7.7285v165.62S264.9038,485.69,253.89,495.0137Z" style="fill:#d8d8d8"/><path d="M409.6577,165.7471c-11.9946.6733-308.2207,45.62-312.3691,45.62a40.8513,40.8513,0,0,0-40.835,42.0078c.5894,21.3169,18.3589,39.0879,39.6758,39.6777a40.851,40.851,0,0,0,42.01-40.8344c0-.24-.0313-.4712-.0357-.7095,5.8516.9516,12.7373,1.9922,20.4468,3.0224a60.6227,60.6227,0,0,0-4.8159,23.24c-.1953,23.2764,14.1933,43.915,34.8222,54.6977,13.2417,6.9214,25.4248,7.7535,36.5972,5.6587a8.5831,8.5831,0,0,1,6.6157,1.5674h0a8.7934,8.7934,0,0,1,3.6094,7.1035V486.5854a16.6979,16.6979,0,0,0,16.6982,16.6978h16.939a16.7,16.7,0,0,0,16.7-16.7V340.5059l3.5786-2.6128a61.3526,61.3526,0,0,0,32.8242.3437c29.5044-7.8945,50.1309-33.7729,49.5962-64.311a64.8644,64.8644,0,0,0-10.3276-34,117.92,117.92,0,0,0,18.5337-11.0391,40.8252,40.8252,0,0,0,77.7124-17.5195C457.6338,188.8057,437.7827,164.1665,409.6577,165.7471ZM271.999,333.5356v153.05a2.9853,2.9853,0,0,1-2.9829,2.981h-16.939a2.9847,2.9847,0,0,1-2.98-2.981V335.36l-23.05-16.8228a46.59,46.59,0,0,1-18.6953-31.5117,41.1791,41.1791,0,0,0,12.0546,4.522c3.6236,11.0908,9.3746,18.6279,19.6836,23.9531l10.0069,5.1709V290.9985a47.5239,47.5239,0,0,0,22.9023,4.2837v27.2354l10.8819-7.8809a43.8427,43.8427,0,0,0,15.4941-19.4814,41.3021,41.3021,0,0,0,11.9092-3,42.9549,42.9549,0,0,1-16.72,25.6382Z" style="fill:#4d4d4d"/><path d="M367.2666,189.7974a47.3634,47.3634,0,0,0-9.3945,3.1943c-2.709,1.2583-5.3916-1.8325-3.56-4.1919,7.1011-9.15,22.126-20.4609,51.1577-14.6582a12.1887,12.1887,0,0,0,12.938-5.6772,52.8,52.8,0,0,0,7.1069-30.814c-1.6064-21.5737-16.8056-40.1572-37.4531-46.6133a51.7058,51.7058,0,0,0-25.7158-1.3682c.0073-.34.0508-.6709.0508-1.0127a45.7839,45.7839,0,0,0-71.252-38.0507A66.4215,66.4215,0,0,0,163.0645,72.17a56.31,56.31,0,0,0-33.3326-2.1216,56.87,56.87,0,0,0-38.4965,79.1084,46.1094,46.1094,0,0,0-24.6749,76.4126,12.2131,12.2131,0,0,0,18.1905-.3857c9.4892-10.6465,22.9819-13.1748,31.811-13.5479a1.8719,1.8719,0,0,1,.958,3.5347c-15.6142,8.46-19.8247,25.2549-19.8247,25.2549a44.4291,44.4291,0,0,0,1.3125,22.53c5.9727,18.4033,22.9556,31.7773,42.291,32.4726A46.1446,46.1446,0,0,0,186.8867,263.53a6.9867,6.9867,0,0,1,6.5449-4.6709c.0357,0,.0713-.0015.1075-.0025a6.9417,6.9417,0,0,1,6.2578,3.5855,36.1974,36.1974,0,0,0,51.2929,13.604,9.6133,9.6133,0,0,1,11.4327.7309,36.15,36.15,0,0,0,55.7348-11.03,4.8366,4.8366,0,0,1,3.7949-2.708c.5015-.0484,1.01-.0816,1.5254-.0962a4.759,4.759,0,0,1,4.337,2.7216,53.8521,53.8521,0,0,0,51.0341,29.72c21.8184-1.125,40.1182-16.6153,47.4175-37.2071,8.5444-24.1049,1.1026-40.8769-8.7666-51.7358C404.89,192.457,385.6865,185.5781,367.2666,189.7974Z" style="fill:#6abf58"/><path d="M198.32,93.606a3.5276,3.5276,0,0,0,1.4575-1.1851,1.3767,1.3767,0,0,0-.96-2.3174,4.7853,4.7853,0,0,0-2.21.5728C194.6538,91.5923,196.3745,94.6509,198.32,93.606Z" style="fill:#4d4d4d"/><path d="M146.0444,155.4912a15.399,15.399,0,0,0-3.4726,4.8775c-1.5537,1.4472-2.3819,3.3535-3.7989,5.0483-2.41,2.8838-8.4042,2.3291-10.6767-.6675-.0523-.0688-.1314-.0625-.19-.1162-.3394-.3311-.6719-.6538-.9932-.9507-.5566-.5156-1.7461-.0141-1.4033.8164.1582.3828.375.7417.5615,1.1138.0317.1011-.0156.1851.0513.2905.0805.127.1914.2412.28.3648a15.9734,15.9734,0,0,0,1.7739,2.6089,27.3619,27.3619,0,0,0,1.5278,3.3959,33.957,33.957,0,0,0,1.3721,3.1177,23.576,23.576,0,0,0,1.9595,3.4585c.7031,1.97,2.416,3.5015,4.5141,3.0655a.669.669,0,0,0,.208-.0435c.0254-.0068.0489-.0083.0738-.0156l.0073-.001a3.387,3.387,0,0,0,.3725-.0781,1.6071,1.6071,0,0,0,.45-.3667,1.9021,1.9021,0,0,0,.1577-.1289,1.68,1.68,0,0,0,.2749-.4537,2.0162,2.0162,0,0,0,.2881-.475c1.1236-3.794,2.1919-7.6031,3.2671-11.4112,1.6592-4.0542,4.4522-8.1772,5.1265-12.4419A1.0452,1.0452,0,0,0,146.0444,155.4912Z" style="fill:#4d4d4d"/><path d="M267.4624,80.4619a1.1436,1.1436,0,0,0-1.02-.0752c-.2554.1079-.5.2593-.752.377-6.7426,1.6089-12.7661,6.2832-18.3623,11.5581-.9316.8442-1.8384,1.709-2.7173,2.6186-2.708,2.6729-5.3237,5.376-7.8842,7.82a8.1742,8.1742,0,0,1-3.0454.6524c-3.1558.0068-7.3018-1.7715-9.8467-3.5469a.4182.4182,0,0,0-.5689.1353c-4.5122-3.1753-9.5161-5.4287-14.6284-5.771-1.0942-.0738-1.1382,1.4482-.2417,1.789a47.4949,47.4949,0,0,1,15.1162,8.7754c4.1294,3.67,7.1934,8.2842,11.1792,12.0405a1.4573,1.4573,0,0,0,1,.4136c.0728.0567.1367.14.21.1929l.0234-.0562a1.2735,1.2735,0,0,0,1.2852.0049.6731.6731,0,0,0,1.041.1631c4.9878-5.2153,7.6836-12.7842,12.2417-18.5176,4.6489-5.8466,10.5308-10.1406,15.665-15.3393.6636-.3726,1.292-.7505,1.9732-1.124C269.29,81.937,268.5649,80.5078,267.4624,80.4619Z" style="fill:#4d4d4d"/><path d="M367.0488,179.7236a13.7212,13.7212,0,0,0-2.5307.7935c-7.8648-1.7271-14.7984-8.8316-22.4-12.1812a1.2027,1.2027,0,0,0-1.45,1.88c.9336.9746,2.0132,2.0313,3.18,3.11,3.2846,5.0752,6.4336,9.75,8.5058,15.4677-3.7837,4.4659-7.0771,10.2081-7.8833,15.5772-.62,1.0493-1.24,2.1-1.7612,3.1636a1.2155,1.2155,0,0,0,2.0976,1.2256c.0249-.0362.0533-.07.0787-.107.0581-.0195.121.0274.1709-.0337a22.0029,22.0029,0,0,0,1.8925-2.7719,60.9068,60.9068,0,0,1,10.3858-10.7339A58.3814,58.3814,0,0,1,373.28,185.979C378.3687,184.0747,375.15,176.7129,367.0488,179.7236Z" style="fill:#4d4d4d"/><path d="M213.1,245.3623a1.422,1.422,0,0,0-2.32-.6953c-4.8628,3.9492-7.5982,8.9546-14.26,10.4228a19.25,19.25,0,0,1-15.6714-3.5869c-2.4057-2.3842-4.6689-4.959-6.9892-7.2778a1.6687,1.6687,0,0,0-2.6089,2.0127,35.3427,35.3427,0,0,0,2.9682,4.9839,25.7311,25.7311,0,0,0,9.9429,11.5635,20.9049,20.9049,0,0,0,5.8687,2.2675c-.0259.0113-.0513.021-.0777.0327-.04.0171-.0542.0625-.09.0855l-.002-.0005c-1.6264-.5391-2.665,1.6089-1.5991,2.7466.0547.0581.1128.0884.1675.145a4.3874,4.3874,0,0,0,4.1631,2.7969c7.9634,2.769,16.66-7.0845,19.2314-16.04a30.9267,30.9267,0,0,0,2.09-7.9956A1.3985,1.3985,0,0,0,213.1,245.3623Z" style="fill:#4d4d4d"/><path d="M338.4741,249.8252c-4.4648,4.2559-9.895,7.2988-16.1577,7.7407-6.3613.45-9.5727-2.7988-13.9165-6.1084-1.0327-1.4682-2.124-3.0034-3.64-3.5005a1.3608,1.3608,0,0,0-1.648.9356,5.1614,5.1614,0,0,0,.88,4.06c.001.0943-.0474.1675-.0278.2681,1.5376,7.8242,10.74,13.9033,18.8969,13.7114,2.8755,1.69,7.3423-1.45,9.6221-3.104A23.4951,23.4951,0,0,0,339.24,256.74a9.2353,9.2353,0,0,0,2.3135-5.6391A1.8236,1.8236,0,0,0,338.4741,249.8252Z" style="fill:#4d4d4d"/></g></svg>