<svg xmlns="http://www.w3.org/2000/svg" viewBox="0 0 512 512"><title>Mothers_in_law_tongue_Plant</title><g id="the_mother_in_law_s_tongue_plant" data-name="the mother in law&apos;s tongue,plant"><path d="M188.33,300.8066l21.3125,111.6973a29.952,29.952,0,0,0,29.4219,24.3389H300.77a29.9532,29.9532,0,0,0,29.4219-24.3389l21.3125-111.6973Z" style="fill:#fff"/><path d="M300.5068,300.8066l-9.2822,91.7442s1.9248,32.85-63.6719,42.0386a29.7605,29.7605,0,0,0,11.2207,2.2534h61.7051A29.9528,29.9528,0,0,0,329.9,412.5039l21.3125-111.6973Z" style="fill:#d8d8d8"/><path d="M205.7168,300.8066s-14.1973-8.8613-16.9785-34.6079a4.2734,4.2734,0,0,1,4.8408-4.6889c12.1465,1.768,18.4473,2.0493,34.2041,14.1142h0l-13.8594-50.603S207.02,206.1,203.4717,171.8066c0,0-4.5781-31.9633-13.41-54.3315a3.019,3.019,0,0,1,4.874-3.3027c19.9356,18.2734,60.834,49.0815,61.5245,109.51l7.9541,13.8809s10.5957-40.81,36.0761-75.1929a3,3,0,0,1,5.4063,1.24c1.9883,12.392,5.4726,39.7905,2.1348,63.6074a205.4223,205.4223,0,0,0-1.6172,31.9223l.2343,14.1661s11.1758-26.9644,45.9-47.6539a3.6281,3.6281,0,0,1,5.51,3.36c-1.1475,14.1069-5.9951,48.0478-29.8291,71.7939H205.7168Z" style="fill:#4d4d4d"/><path d="M385.1006,132.2285c-.3086-2.9375-4.4326-3.8691-6.7852-2.0835-9.666,7.333-34.5039,30.13-28.8633,64.1226C300.5488,235.4229,289.3828,295.88,289.3828,295.88l34.6162,5.58c.1485-37.626,12.0264-63.23,24.3789-85.48C353.1221,207.4346,388.8545,167.9912,385.1006,132.2285Z" style="fill:#6abf58"/><path d="M295.9316,296.9355c3.7911-9.4209,2.5245-23.6879,1.8565-29.1914a156.656,156.656,0,0,0-8.4053,28.1358Z" style="fill:#4d4d4d"/><path d="M134.5234,132.3818c23.3711,21.772,97.461,95.3179,115.5118,168.4248H231.9141a58.53,58.53,0,0,0-2.75-11.9545c-6.5-19.8082-22.0137-35.21-41.28-43.1709-21.8692-9.0367-64.1787-36.1465-61.1006-110.0674A4.6229,4.6229,0,0,1,134.5234,132.3818Z" style="fill:#6abf58"/><path d="M235.0049,300.8066h15.03a195.31,195.31,0,0,0-10.3243-30.8159C237.8,277.4375,235.1953,289.7012,235.0049,300.8066Z" style="fill:#4d4d4d"/><path d="M280.9951,251.5879a100.5017,100.5017,0,0,1-6.083-10.0073,90.781,90.781,0,0,1-6.958-17.1011,41.4377,41.4377,0,0,1,3.5938-30.6187c13.4824-25.6626,24.2177-67.8432-2.2022-122.3139a6.42,6.42,0,0,0-10.8018-1.2129c-12.6347,15.92-37.3857,57.373-13.5078,116.6406,0,0,6.5762,15.6167,6.8682,27.6509-21.91,37.5454-6.1621,80.7944-6.1621,80.7944l43.8711,7.0718C299.873,282.3682,286.1172,259.1055,280.9951,251.5879Z" style="fill:#6abf58"/><path d="M266.5977,184.0312a137.9912,137.9912,0,0,1-16.8487,17.1377,61.7291,61.7291,0,0,1,2.1553,13.4566s10.3145-17.6323,15.9131-29.7954A.735.735,0,0,0,266.5977,184.0312Z" style="fill:#4d4d4d"/><path d="M300.7676,444.0859H239.0635a37.2444,37.2444,0,0,1-36.5391-30.2251L179.5713,293.5635H360.26L337.3066,413.8608A37.2364,37.2364,0,0,1,300.7676,444.0859ZM197.0869,308.0508l19.67,103.0937a22.7362,22.7362,0,0,0,22.3067,18.4536h61.7041a22.7284,22.7284,0,0,0,22.3066-18.4511l19.67-103.0962Z" style="fill:#4d4d4d"/><path d="M369.2285,176.1973c.5254-.7017-.2637-1.9463-.998-1.4678A135.6848,135.6848,0,0,1,348.63,184.8086a59.5614,59.5614,0,0,0,.8222,9.459S364.4922,182.5229,369.2285,176.1973Z" style="fill:#4d4d4d"/><path d="M161.1826,188.2241a52.75,52.75,0,0,0-9.0781,6.2676c-2.416,2.1421-5.7617,4.77-6.8086,7.8926a1.5061,1.5061,0,0,0,2.1885,1.6831c2.7578-1.4824,4.9082-4.8545,7.1338-7.062,2.5019-2.4829,5.0029-5.0533,7.6386-7.3887.7657-.6782-.2158-1.8853-1.0742-1.3926Z" style="fill:#4d4d4d"/><path d="M171.2949,182.1a26.1975,26.1975,0,0,0,4.627-2.7192c1.289-.919.07-3.0684-1.2578-2.15a27.4871,27.4871,0,0,0-4.3516,3.5952.8148.8148,0,0,0,.9824,1.2739Z" style="fill:#4d4d4d"/><path d="M140.5986,158.3638c-2.0859.0517-3.8691,1.67-5.5009,2.8437-1.5635,1.124-3.378,2.0723-3.99,3.9824a.7665.7665,0,0,0,.7285.9556c2.0508.2383,3.9014-1.2954,5.4815-2.4473,1.5762-1.1494,3.5127-2.3916,4.0264-4.3559a.78.78,0,0,0-.7452-.9785Z" style="fill:#4d4d4d"/><path d="M147.2949,155.4385a5.06,5.06,0,0,0,3.36-2.0186c.7676-.9858-.4707-2.3471-1.4141-1.414-.832.8232-1.6787,1.6123-2.5517,2.392-.5079.4537.0488,1.1338.6054,1.0406Z" style="fill:#4d4d4d"/><path d="M184.2578,216.249c-2.65-.3188-5.3848,3.2046-7.1348,4.8428a48.6954,48.6954,0,0,0-6.872,7.6689c-1.002,1.4439,1.3428,3.2891,2.459,1.8975a81.53,81.53,0,0,1,6.9111-7.7065c1.6768-1.62,5.1064-3.6587,5.1269-6.212a.5041.5041,0,0,0-.49-.4907Z" style="fill:#4d4d4d"/><path d="M192.168,210.8477c1.709-1.06,3.9668-1.9288,5.0175-3.6968.2793-.47-.0693-1.2671-.6845-1.1924-2.0489.2505-3.7412,1.8921-5.418,3.0327-1.1318.77-.1035,2.5947,1.085,1.8565Z" style="fill:#4d4d4d"/><path d="M209.88,243.1875c-2.4932,1.2422-4.6533,3.6064-6.5186,5.6353a1.2644,1.2644,0,0,0,1.7871,1.7871c2.044-1.8482,4.4239-3.9864,5.6866-6.4673a.7041.7041,0,0,0-.9551-.9551Z" style="fill:#4d4d4d"/><path d="M215.0771,240.8994a24.09,24.09,0,0,0,4.086-2.9433.9173.9173,0,0,0-.6406-1.5459c-1.917-.0723-3.8067,1.708-4.5557,3.3794-.293.6542.373,1.6323,1.11,1.11Z" style="fill:#4d4d4d"/><path d="M259.584,90.7456c-2.5391-.9546-6.1973-.4438-8.7754.2422-1.68.4468-.9375,2.8032.7021,2.5464,2.5655-.4019,5.6788-.6182,8.0733-1.5884a.6285.6285,0,0,0,0-1.2Z" style="fill:#4d4d4d"/><path d="M267.9316,91.3413c1.502.6587,3.0645,1.0625,4.6065,1.62a1.3908,1.3908,0,0,0,1.3418-.3545c.5107-.4379.4521-.6826.3545-1.3418a1.35,1.35,0,0,0-.9629-.9628,7.9859,7.9859,0,0,0-5.2041.0048c-.3965.1519-.6289.8184-.1358,1.0347Z" style="fill:#4d4d4d"/><path d="M257.0918,119.0513a37.1937,37.1937,0,0,0-15.374,2.3042c-1.8184.63-1.0606,3.5136.8017,2.91,4.8672-1.5761,9.8252-2.6621,14.7227-4.1025a.5688.5688,0,0,0-.15-1.1118Z" style="fill:#4d4d4d"/><path d="M270.8857,121.3452c1.5108.3106,3.0342.36,4.5616.5337,1.7568.2,3.4345.7456,5.1826.9663a1.1587,1.1587,0,0,0,.581-2.1445,15.11,15.11,0,0,0-10.3252-.5557c-.5293.1919-.6513,1.0664,0,1.2Z" style="fill:#4d4d4d"/><path d="M257.0605,154.5234a55.2384,55.2384,0,0,0-14.1445,3.7793c-2.0127.833-1.1308,4.1563.9121,3.3106,4.5479-1.8833,9.0977-3.792,13.5762-5.8247.5937-.27.3174-1.35-.3438-1.2652Z" style="fill:#4d4d4d"/><path d="M270.9336,156.7476a36.9088,36.9088,0,0,1,4.7891,2.2631c1.14.6748,1.6972,1.2237,3.0146.8658a.8938.8938,0,0,0,.6514-.855c-.3985-3.3457-5.8223-3.6944-8.4551-3.292-.5811.0884-.4141.8481,0,1.0181Z" style="fill:#4d4d4d"/><path d="M254.0889,237.5459a28.3085,28.3085,0,0,0-8.8018,2.5918c-2.041.9634-.1787,4.2852,1.79,3.0625,2.4551-1.5249,4.99-3.063,7.5206-4.4478.7138-.3906.1767-1.2988-.5088-1.2065Z" style="fill:#4d4d4d"/><path d="M263.4961,236.8628c1.0254,1.5967,3.7734,1.3286,5.5078,1.4907,1.44.1343,1.3955-2.0566,0-2.2265-1.7158-.2081-4.1133-1.0411-5.4521.3017a.3628.3628,0,0,0-.0557.4341Z" style="fill:#4d4d4d"/><path d="M260.209,269.9146a23.0075,23.0075,0,0,0-8.9414,1.7465c-2.2041.8345-5.49,1.6289-6.5215,3.8863a.8839.8839,0,0,0,.75,1.3061c2.4756.2842,5.2422-2.001,7.4941-2.8789,2.5059-.9761,5.0821-1.7891,7.5332-2.9.5967-.2705.253-1.14-.3144-1.16Z" style="fill:#4d4d4d"/><path d="M273.8418,270.8369c1.2549.9678,3.043.8213,4.5654,1.0029a48.3229,48.3229,0,0,1,6.2246,1.3956c1.625.4121,2.8584-2.1128,1.1924-2.8277-2.9062-1.2461-9.5234-3.1616-12.1084-.5488a.6343.6343,0,0,0,.126.978Z" style="fill:#4d4d4d"/><path d="M311.2666,273.31c-4.6094-1.8228-11.002-2.08-15.6055-.0616-1.3584.5952-.6465,2.8008.7422,2.7417,2.6377-.1118,5.2256-.9218,7.8692-1.1748,2.3476-.2246,4.6552-.3794,6.9941-.705.4541-.063.3272-.6709,0-.8Z" style="fill:#4d4d4d"/><path d="M317.4209,276.2822a43.9228,43.9228,0,0,1,5.3008,4.1074c.9267.8077,2.2832-.5214,1.36-1.36a16.9953,16.9953,0,0,0-6.3271-3.54c-.4815-.1563-.7383.5371-.334.7929Z" style="fill:#4d4d4d"/><path d="M327.5674,244.8159a24.4,24.4,0,0,0-13.04-2.0815,1.7653,1.7653,0,1,0,.4717,3.4834,41.9387,41.9387,0,0,1,11.9873-.0225c.7539.1026,1.4414-.9873.5811-1.3794Z" style="fill:#4d4d4d"/><path d="M343.9023,214.7139a14.33,14.33,0,0,0-9.45-1.9922c-1.9052.1841-1.89,3.2051,0,2.98a31.7009,31.7009,0,0,1,8.8252.4942.8152.8152,0,0,0,.625-1.4824Z" style="fill:#4d4d4d"/><path d="M358.5742,195.6792a6.4067,6.4067,0,0,0-3.4121-1.2178.4576.4576,0,0,0-.32.7725,6.3374,6.3374,0,0,0,3.2676,1.5483.606.606,0,0,0,.4648-1.103Z" style="fill:#4d4d4d"/><path d="M364.0264,163.55c3.3222.938,6.249,1.9668,8.87,4.311,1.1719,1.0489,2.9043-.7544,1.707-1.707-2.9326-2.3359-6.5527-4.1567-10.3818-4.0493a.7392.7392,0,0,0-.1953,1.4453Z" style="fill:#4d4d4d"/><path d="M359.1475,161.9141a2.1561,2.1561,0,0,0-2.0948-.2149.6477.6477,0,0,0-.3838.9424q.1744.2527.3467.5059a1.1373,1.1373,0,0,0,1.5323.4018c.2-.1323.3994-.2651.6-.397a.7244.7244,0,0,0,0-1.2382Z" style="fill:#4d4d4d"/><path d="M373.7422,141.5654a36.9936,36.9936,0,0,1,3.9277,3.148c1.0156.998,1.6582,2.19,2.8682,2.9551a1.24,1.24,0,0,0,1.8017-1.3848c-.8027-3.1035-5.06-5.5117-8.0019-6.1314a.7771.7771,0,0,0-.5957,1.4131Z" style="fill:#4d4d4d"/></g></svg>