<svg xmlns="http://www.w3.org/2000/svg" viewBox="0 0 512 512"><title>Owl_Statue</title><g id="owl_statue_bird_adorn" data-name="owl statue,bird,adorn"><path d="M268.4917,157.9854c-20.8936-39.2242-42.1084-56.0123-75.8394-55.8814-43.3144.1675-77.7231,37.0874-77.7231,80.7778V293.3164c0,64.3843,51.7451,116.5776,115.5762,116.5776H381.1133a14.73,14.73,0,0,0,12.93-21.7846Z" style="fill:#fff"/><path d="M204.2607,211.3691l-10.8847-9.89-10.8843,9.89a16.5306,16.5306,0,0,0-3.1221,20.4683l14.0064,24.0034,14.0088-24.0034A16.5337,16.5337,0,0,0,204.2607,211.3691Z" style="fill:#4d4d4d"/><path d="M145.2334,271.1465h0a4.3889,4.3889,0,0,1,4.3369,5.0615l-1.3154,8.4751a3.1264,3.1264,0,0,1-3.09,2.647h0a3.1264,3.1264,0,0,1-3.0976-2.7017l-1.1162-8.1333A4.3887,4.3887,0,0,1,145.2334,271.1465Z" style="fill:#6abf58"/><path d="M175.0483,271.1465h0a4.3887,4.3887,0,0,1,4.337,5.0615l-1.315,8.4751a3.1272,3.1272,0,0,1-3.09,2.647h0a3.1265,3.1265,0,0,1-3.0977-2.7017l-1.1162-8.1333A4.3888,4.3888,0,0,1,175.0483,271.1465Z" style="fill:#6abf58"/><path d="M160.1411,302.2778h0a4.3883,4.3883,0,0,1,4.3364,5.0616l-1.3149,8.4746a3.1266,3.1266,0,0,1-3.09,2.6474h0a3.1258,3.1258,0,0,1-3.0977-2.7016l-1.1162-8.1333A4.3885,4.3885,0,0,1,160.1411,302.2778Z" style="fill:#6abf58"/><path d="M189.9561,302.2778h0a4.3884,4.3884,0,0,1,4.3364,5.0616l-1.315,8.4746a3.1262,3.1262,0,0,1-3.09,2.6474h0A3.1265,3.1265,0,0,1,186.79,315.76l-1.1162-8.1333A4.3886,4.3886,0,0,1,189.9561,302.2778Z" style="fill:#6abf58"/><path d="M204.8633,271.1465h0A4.3886,4.3886,0,0,1,209.2,276.208l-1.3149,8.4751a3.1269,3.1269,0,0,1-3.09,2.647h0a3.1266,3.1266,0,0,1-3.0981-2.7017l-1.1162-8.1333A4.3887,4.3887,0,0,1,204.8633,271.1465Z" style="fill:#6abf58"/><path d="M227.4077,134.6372a38.1143,38.1143,0,0,0-34.2246,21.3755,38.1507,38.1507,0,1,0,0,33.5513,38.1356,38.1356,0,1,0,34.2246-54.9268Zm-68.45,63.562a25.4109,25.4109,0,1,1,25.4112-25.4111A25.4106,25.4106,0,0,1,158.9575,198.1992Zm67.7232,0a25.4109,25.4109,0,1,1,25.4111-25.4111A25.411,25.411,0,0,1,226.6807,198.1992Z" style="fill:#4d4d4d"/><path d="M158.9565,155.3706a17.4185,17.4185,0,1,0,17.4185,17.416A17.4363,17.4363,0,0,0,158.9565,155.3706Z" style="fill:#4d4d4d"/><path d="M227.4678,155.3706a17.4185,17.4185,0,1,0,17.4189,17.416A17.4363,17.4363,0,0,0,227.4678,155.3706Z" style="fill:#4d4d4d"/><path d="M293.4839,203.7939c8.6914,59.28-58.2378,162.3736-166.1157,142.1167,19.061,37.9527,58.0732,63.9834,103.1367,63.9834H381.1133a14.73,14.73,0,0,0,12.9306-21.7846Z" style="fill:#d8d8d8"/><path d="M280.397,181.8462c-1.2862,11.3257-4.6753,18.5874-22.3931,42.7725-2.146,2.9292-4.1362,6.0043-6.2793,8.9355-8.4067,11.4985-40.5024,60.5781-15.9839,109.9556,16.5806,33.3906,66.9463,54.6494,105.3159,66.4467H381.01a14.73,14.73,0,0,0,12.9047-21.831Z" style="fill:#6abf58"/><path d="M401.8081,387.189a20.2938,20.2938,0,0,1-17.8149,30.0131H230.5049c-67.7237,0-122.82-55.5742-122.82-123.8872V182.88c0-48.3867,38.105-87.9019,84.9394-88.0825h.4341c35.4946,0,59.2183,17.3291,81.7959,59.6933ZM193.0415,109.4111h-.3608c-38.8789.147-70.5088,33.1075-70.5088,73.4693V293.3149c0,60.2549,48.5981,109.274,108.333,109.274h138.353a14.73,14.73,0,0,0,12.9307-21.7842L262.1118,161.4458C242.1821,124.0332,222.792,109.4111,193.0415,109.4111Z" style="fill:#4d4d4d"/></g></svg>