<svg xmlns="http://www.w3.org/2000/svg" viewBox="0 0 512 512"><title>Rake</title><g id="garden_fork_tool_garden" data-name="garden fork,tool,garden"><path d="M232.9023,383.3774h69.3619A62.4624,62.4624,0,0,1,364.7266,445.84v9.1729a0,0,0,0,1,0,0H170.44a0,0,0,0,1,0,0V445.84A62.4624,62.4624,0,0,1,232.9023,383.3774Z" style="fill:#4d4d4d"/><path d="M230.3354,202.9785l-27.0009,9.8042-27.001,9.8042a11.7134,11.7134,0,0,0-7.0122,15.0078l5.9082,16.2715,38.0112-13.8022,38.0108-13.8023-5.9082-16.271A11.7134,11.7134,0,0,0,230.3354,202.9785Z" style="fill:#fff"/><path d="M254.8472,224.9565,213.2407,240.064l-.3227.1176-41.607,15.1075a47.4763,47.4763,0,0,0-26.1684,66.039l48.9839,96.9248a37.6329,37.6329,0,0,0,29.1948,20.2222c.8642.1055,1.73.2275,2.6235.34a9.0532,9.0532,0,0,0,9.334-12.8662l-42.6435-89.4433c-3.59-7.53-.9117-16.962,6.5908-20.6094a14.9884,14.9884,0,0,1,20.457,7.7519l40.9512,99.4825a11.5746,11.5746,0,0,0,3.0488,4.1152c10.6587,9.6167,28.6392,3.0879,30.644-11.1274a11.5668,11.5668,0,0,0-.3017-5.1128l-32.42-102.58a14.9891,14.9891,0,0,1,10.7173-19.0718c8.0947-2.0156,16.2011,3.5,18.2793,11.5791l24.6616,95.896a9.0871,9.0871,0,0,0,15.4438,3.938q.22-.2366.4356-.4717a42.778,42.778,0,0,0,10.0752-38.67L317.291,258.8193A47.476,47.476,0,0,0,254.8472,224.9565Z" style="fill:#fff"/><path d="M430.12,402.8687c-22.9741-1.0508-73.1255,10.5732-95.9228,52.4438l35.1772.0264a12.8567,12.8567,0,0,0,11.4429-7.1773c4.9062-9.6894,17.8613-26.9136,50.3852-37.1894A4.1551,4.1551,0,0,0,430.12,402.8687Z" style="fill:#4d4d4d"/><path d="M348.8413,455.3325a12.6811,12.6811,0,0,0,11.9048-8.2412c6.1011-16.25,23.05-52.585,58.32-73.03,5.8028-3.3632,1.7163-11.8076-4.1347-10.8227-24.4263,4.11-94.3482,30.2153-116.0674,92.0263Z" style="fill:#6abf58"/><path d="M323.8013,449.6543a132.8009,132.8009,0,0,1,14.56-23.0171,164.0333,164.0333,0,0,1,43.4473-38.6685c1.6357-1.0058,3.1421,1.5376,1.7051,2.8023-22.3843,19.6831-41.5078,38.4477-55.0454,64.4077l-7.1612-.01C322.0986,453.3052,322.92,451.4546,323.8013,449.6543Z" style="fill:#4d4d4d"/><path d="M81.88,402.8687c22.9741-1.0508,73.125,10.5732,95.9228,52.4438l-35.1772.0264a12.8567,12.8567,0,0,1-11.4429-7.1773c-4.9062-9.6894-17.8613-26.9136-50.3857-37.1894A4.1552,4.1552,0,0,1,81.88,402.8687Z" style="fill:#4d4d4d"/><path d="M163.1587,455.3325a12.6811,12.6811,0,0,1-11.9048-8.2412c-6.1011-16.25-23.05-52.585-58.32-73.03-5.8028-3.3632-1.7163-11.8076,4.1347-10.8227,24.4263,4.11,94.3482,30.2153,116.0674,92.0263Z" style="fill:#6abf58"/><path d="M188.1987,449.6543a132.8308,132.8308,0,0,0-14.56-23.0171,164.0333,164.0333,0,0,0-43.4473-38.6685c-1.6357-1.0058-3.1421,1.5376-1.7051,2.8023,22.3843,19.6831,41.5078,38.4477,55.0454,64.4077l7.1612-.01C189.9014,453.3052,189.08,451.4546,188.1987,449.6543Z" style="fill:#4d4d4d"/><path d="M174.9468,276.6382c5.5176-1.0855,10.8261-3.8892,16.0014-6.0513,4.19-1.75,8.9844-2.9531,12.3536-6.064a1.5239,1.5239,0,0,0-1.0674-2.5761c-4.5889.269-8.7759,2.8725-12.9561,4.6792-5.15,2.2265-10.8525,4.1035-15.4653,7.3227a1.4788,1.4788,0,0,0,1.1338,2.69Z" style="fill:#4d4d4d"/><path d="M176.792,286.12c5.0122-.0786,10.4634-2.9961,14.8926-5.17,2.1474-1.0542.2558-4.3369-1.8853-3.2251a72.5585,72.5585,0,0,1-7.2973,3.3325,42.2106,42.2106,0,0,0-6.3956,2.5323,1.3687,1.3687,0,0,0,.6856,2.5307Z" style="fill:#4d4d4d"/><path d="M180.9419,294.1216c1.8154.5727,3.5239-.12,5.3281-.4458,2.5928-.4683,1.522-4.66-1.103-4.002-1.93.4839-3.8789.959-4.89,2.8125a1.129,1.129,0,0,0,.665,1.6353Z" style="fill:#4d4d4d"/><path d="M250.3569,223.7983l-5.0136-13.8076a11.7134,11.7134,0,0,0-15.0079-7.0122L205.5723,211.97c4.0844,5.6865,13.1836,20.0059,7.6679,28.0938Z" style="fill:#d8d8d8"/><path d="M341.2183,361.625,317.291,258.8193a47.4755,47.4755,0,0,0-62.4429-33.8632l-16.6831,6.0576c4.92,4.479,14.8482,12.6748,17.2056,27.6211,1.7446,11.0639-1.5449,22.3393-7.9775,31.5088v0a22.08,22.08,0,0,0-3.024,19.1851l26.7017,86.6147a53.6735,53.6735,0,0,1-1.2354,34.8863c10.3189,3.4839,22.8384-2.9844,24.4917-14.7114a11.5673,11.5673,0,0,0-.3017-5.1128l-32.42-102.58a14.9886,14.9886,0,0,1,10.7173-19.0713c8.0947-2.0166,16.2011,3.5,18.2793,11.5786l24.6616,95.896a9.0873,9.0873,0,0,0,15.4438,3.938q.22-.2366.4356-.4717A42.778,42.778,0,0,0,341.2183,361.625Z" style="fill:#d8d8d8"/><path d="M348.2734,359.9844,324.3467,257.1758a54.5971,54.5971,0,0,0-68.6968-40.023l-3.4976-9.6313A18.9483,18.9483,0,0,0,227.8647,196.17l-1.7612.64L204.1621,90.8242A42.8465,42.8465,0,1,0,124.45,119.7666L175.624,215.14l-1.7622.64a18.956,18.956,0,0,0-11.3486,24.2871l3.4917,9.6172a54.5968,54.5968,0,0,0-27.3291,74.9121l48.9853,96.9277A44.8427,44.8427,0,0,0,222.42,445.66l2.62.3442a16.6578,16.6578,0,0,0,2.0489.1274,16.2939,16.2939,0,0,0,14.728-23.3017l-42.644-89.4434c-1.9737-4.1406-.4976-9.1675,3.2187-10.9741a7.739,7.739,0,0,1,10.5918,3.9946l40.9536,99.4839A18.6514,18.6514,0,0,0,258.83,432.62a25.9646,25.9646,0,0,0,42.67-15.4824,18.7216,18.7216,0,0,0-.5684-8.3145l-32.42-102.582a7.7442,7.7442,0,0,1,5.5606-9.8564c3.999-1.0284,8.373,1.91,9.5141,6.3574l24.6626,95.8945a16.3319,16.3319,0,0,0,27.8125,7.0127l.4146-.4526A49.9983,49.9983,0,0,0,348.2734,359.9844ZM172.1523,102.9917a11.5359,11.5359,0,1,1,.3941-8.8237A11.4648,11.4648,0,0,1,172.1523,102.9917Zm4.129,128.7134a4.4287,4.4287,0,0,1,2.5253-2.3062l54-19.6089.0049-.0048a4.4653,4.4653,0,0,1,5.7227,2.6787l3.4345,9.4619-55.4179,20.1225-6.9854,2.5362-3.4355-9.46A4.4476,4.4476,0,0,1,176.2813,231.7051ZM325.8228,395.3779l-.4195.4575a1.8417,1.8417,0,0,1-3.1245-.811l-24.6621-95.89c-3.1338-12.2-15.2681-19.7222-27.0439-16.8125A22.0841,22.0841,0,0,0,256.5,293.0459a22.3215,22.3215,0,0,0-1.8013,17.562l32.42,102.5825a4.4748,4.4748,0,0,1,.0356,1.919,11.4905,11.4905,0,0,1-18.626,6.749,4.45,4.45,0,0,1-1.1953-1.4858l-40.9512-99.4834a22.3146,22.3146,0,0,0-12.644-12.3091,22.0218,22.0218,0,0,0-17.68.8017c-10.9126,5.3057-15.3808,18.8736-9.9624,30.2393L228.74,429.0645a1.7038,1.7038,0,0,1-.1626,1.82,1.7429,1.7429,0,0,1-1.7216.7451l-2.6553-.3491a30.377,30.377,0,0,1-23.6079-16.294L151.6074,318.06a40.23,40.23,0,0,1,22.1768-55.96l83.5366-30.3335h-.0024a40.23,40.23,0,0,1,52.9179,28.6924l23.9268,102.8086A35.5053,35.5053,0,0,1,325.8228,395.3779Z" style="fill:#4d4d4d"/></g></svg>