<svg xmlns="http://www.w3.org/2000/svg" viewBox="0 0 512 512"><title>Shovel</title><g id="shovel_tool_garden" data-name="shovel,tool,garden"><rect x="196.3193" y="431.3047" width="149.3316" height="44.9712" style="fill:#4d4d4d"/><rect x="187.9773" y="153.6199" width="21.253" height="158.7109" transform="translate(-70.6473 87.2878) rotate(-21.1364)" style="fill:#fff"/><path d="M239.5,302.2441,214.936,311.74a14.7855,14.7855,0,0,0-8.4594,19.1216h0l52.1445-20.1582h0A14.7848,14.7848,0,0,0,239.5,302.2441Z" style="fill:#4d4d4d"/><path d="M232.5488,320.7827,172.6719,343.93a5.2778,5.2778,0,0,0-2.6016,7.6723l49.1636,80.5464a61.9238,61.9238,0,0,0,44.394,29.4317,69.0851,69.0851,0,0,0,23.0684-.7325,69.7986,69.7986,0,0,0,19.5478-17.43c10.7222-13.8355,14.39-31.8882,11.0884-49.0777L299.5117,301.562a5.2778,5.2778,0,0,0-7.0859-3.9272Z" style="fill:#fff"/><path d="M299.5117,301.562a5.2777,5.2777,0,0,0-7.0859-3.9272l-33.8047,13.0683c.001.002,57.2,95.0073,3.09,150.5069.6441.1074,1.2676.2841,1.917.3706a69.0983,69.0983,0,0,0,23.0684-.7325,69.7986,69.7986,0,0,0,19.5478-17.43c10.7222-13.8355,14.39-31.8882,11.0884-49.0777Z" style="fill:#d8d8d8"/><path d="M208.5171,362.8877c5.0693-1.7637,9.9492-4.1167,14.85-6.2979,4.13-1.8383,8.0962-2.686,10.126-6.9169a2.89,2.89,0,0,0-1.7354-3.6817c-4.478-1.2764-7.8633,1.2534-11.92,3.1113-4.8735,2.2325-9.8623,4.335-14.5332,6.9707a3.7694,3.7694,0,0,0,3.2124,6.8145Z" style="fill:#4d4d4d"/><path d="M217.8394,379.5874c3.1992,2.186,7.91-.8008,10.9277-2.3345,4.4678-2.27,1.2817-9.0488-3.32-7.0439-3.1,1.3506-8.4063,3.0967-8.7549,6.9438a2.6863,2.6863,0,0,0,1.1475,2.4346Z" style="fill:#4d4d4d"/><path d="M233.166,396.59c4.291-2.0229,1.1543-8.6948-3.1435-6.6689-4.2911,2.0229-1.1548,8.6948,3.1435,6.6689Z" style="fill:#4d4d4d"/><path d="M324.4463,392.9712,306.627,300.189a12.5314,12.5314,0,0,0-16.8125-9.314l-28.2857,10.9355a22.03,22.03,0,0,0-20.0635-7.5234L171.6226,113.6177c.0551-.0811.1284-.1514.1811-.2339a11.27,11.27,0,0,0,1.2359-10.271l-3.7061-9.5918a38.4171,38.4171,0,0,0,3.5361-6.2979c8.82-19.9716-.3374-44.0654-.7324-45.08L169.52,35.3984,87.2261,67.2119l2.6,6.751c.3906,1.0171,9.8213,25.0054,29.7817,33.8506a38.3631,38.3631,0,0,0,6.853,2.2832l3.7061,9.5879a11.2735,11.2735,0,0,0,7.8237,6.7724c.0933.0244.1963.0137.29.0362l18.1948,47.0717.0025-.0009,51.6513,133.6128a22.0314,22.0314,0,0,0-9.7866,19.0639l-28.2852,10.9356a12.5165,12.5165,0,0,0-6.1684,18.1992l49.164,80.5444c11.0777,18.1563,29.1661,30.1255,49.6216,32.8418a79.8526,79.8526,0,0,0,10.4483.6983,74.91,74.91,0,0,0,15.0322-1.5142l1.1929-.2451,1.0473-.6226A77.0672,77.0672,0,0,0,311.97,447.856C323.6914,432.7271,328.24,412.7266,324.4463,392.9712ZM159.6167,81.3691c-2.6968,6.1094-7.4531,10.41-14.5391,13.15-20.1352,7.7841-33.0058-9.2447-38.5717-19.2276L160.6235,54.37C162.2134,61.38,163.582,72.394,159.6167,81.3691ZM176.2993,165.9l51.4619,133.1147-6.31,2.438L169.99,168.3394ZM300.52,438.9805a62.9213,62.9213,0,0,1-16.4775,15.0063,62.1621,62.1621,0,0,1-19.46.41,54.3477,54.3477,0,0,1-39.164-26.023L177.48,349.8389l24.8506-9.6075.0005.001,65.6582-25.3813-.001-.003,24.854-9.6084,17.376,90.4668C313.2266,411.3682,309.6919,427.1431,300.52,438.9805Z" style="fill:#4d4d4d"/><path d="M111.752,424.1318c22.9741-1.0512,73.1254,10.5728,95.9228,52.4439l-35.1772.0259a12.8558,12.8558,0,0,1-11.4429-7.1773c-4.9063-9.6894-17.8613-26.9136-50.3853-37.1889A4.1552,4.1552,0,0,1,111.752,424.1318Z" style="fill:#4d4d4d"/><path d="M193.03,476.5957a12.6811,12.6811,0,0,1-11.9048-8.2417c-6.1011-16.25-23.05-52.585-58.32-73.03-5.8023-3.3638-1.7158-11.8081,4.1352-10.8232,24.4263,4.11,94.3482,30.2153,116.0674,92.0263Z" style="fill:#6abf58"/><path d="M218.07,470.917A132.8308,132.8308,0,0,0,203.51,447.9a164.0349,164.0349,0,0,0-43.4473-38.6685c-1.6358-1.0058-3.1421,1.5376-1.7051,2.8023,22.3838,19.6836,41.5078,38.4477,55.0454,64.4082l7.1612-.01C219.7729,474.5679,218.9517,472.7173,218.07,470.917Z" style="fill:#4d4d4d"/><path d="M420.812,424.1318c-22.9741-1.0512-73.1255,10.5728-95.9228,52.4439l35.1772.0259a12.8558,12.8558,0,0,0,11.4429-7.1773c4.9062-9.6894,17.8613-26.9136,50.3852-37.1889A4.1552,4.1552,0,0,0,420.812,424.1318Z" style="fill:#4d4d4d"/><path d="M339.5337,476.5957a12.6816,12.6816,0,0,0,11.9048-8.2417c6.1011-16.25,23.05-52.585,58.32-73.03,5.8027-3.3638,1.7163-11.8081-4.1348-10.8232-24.4262,4.11-94.3481,30.2153-116.0678,92.0263Z" style="fill:#6abf58"/><path d="M314.4937,470.918a132.8312,132.8312,0,0,1,14.56-23.0176,164.0411,164.0411,0,0,1,43.4473-38.6685c1.6357-1.0058,3.1421,1.5376,1.7051,2.8023-22.3838,19.6836-41.5079,38.4477-55.0455,64.4082l-7.1611-.01C312.791,474.5684,313.6123,472.7178,314.4937,470.918Z" style="fill:#4d4d4d"/></g></svg>