<svg xmlns="http://www.w3.org/2000/svg" viewBox="0 0 512 512"><title>Sprout</title><g id="seed_sprout" data-name="seed,sprout"><path d="M126.6387,389.53H356.8223V362.7051A115.0918,115.0918,0,0,0,241.7305,247.6133h0A115.0917,115.0917,0,0,0,126.6387,362.7051Z" style="fill:#fff"/><path d="M255.5547,247.6133s92.0723,122.7632-74.03,141.917H356.8223S366.0488,270.9209,255.5547,247.6133Z" style="fill:#d8d8d8"/><path d="M217.4385,171.4976s-10.0772,2.081-29.4737,14.5942c-23.1347,14.9238-54.1074,10.292-71.165-11.3169q-.4088-.5193-.8164-1.0522c-5.42-7.0972-12.5537-12.7456-21.0605-15.4629a52.9408,52.9408,0,0,0-5.65-1.4805,4.4542,4.4542,0,0,1-1.6661-8.0513,118.695,118.695,0,0,1,53.4668-20.1587c30.1153-3.372,60.28,10.9463,74.042,37.9444Q216.3355,168.908,217.4385,171.4976Z" style="fill:#6abf58"/><path d="M256.4746,176.7788s12.667,1.4375,38.0039,14.7012c30.2188,15.8193,67.916,6.63,86.5391-21.9458q.4467-.6863.89-1.39c5.8916-9.3647,23.4492-19.478,33.64-23.7846a65.7641,65.7641,0,0,1,6.8066-2.461,5.5183,5.5183,0,0,0,1.1524-10.1206c-13.7549-7.7387-47.2588-15.8989-77.6211-16.5322-37.5371-.7832-73.1514,20.2671-87.1026,55.1235Q257.5444,173.4593,256.4746,176.7788Z" style="fill:#6abf58"/><path d="M254.666,240.2017l-3.1094-25.9195a41.7206,41.7206,0,0,1,12.6163-35.3213,98.5784,98.5784,0,0,1,20.82-15.0927,1.2844,1.2844,0,0,0-.8584-2.4009,84.9833,84.9833,0,0,0-25.4024,9.7241,41.1163,41.1163,0,0,0-17.2588,21.0059,41.1175,41.1175,0,0,0-17.26-21.0059,84.9833,84.9833,0,0,0-25.4024-9.7241,1.2845,1.2845,0,0,0-.8584,2.4009,98.5524,98.5524,0,0,1,20.82,15.0927A41.72,41.72,0,0,1,231.39,214.2822l-3.1093,25.92c-61.4151,7.5381-109.3975,67.0459-109.3975,139.12v17.4541H364.0664V379.3218C364.0664,307.2471,316.082,247.7388,254.666,240.2017Zm94.9131,142.0864H133.37v-2.9663c0-69.1743,48.4942-125.4546,108.1045-125.4546s108.1045,56.28,108.1045,125.4546Z" style="fill:#4d4d4d"/><path d="M174.748,318.9834a6.0678,6.0678,0,0,0-.6367.1392,5.64,5.64,0,0,0-4.4931,1.4043,17.7346,17.7346,0,0,0-4.1368,5.8706,31.7586,31.7586,0,0,0-1.8623,3.44,5.0051,5.0051,0,0,0,.6211,4.7251,5.5864,5.5864,0,0,0,3.7618,4.021c4.8994,1.2412,7.9-1.8838,10.374-5.6563,1.9668-2.9985,4.3691-7.0146,2.4365-10.5957A6.1983,6.1983,0,0,0,174.748,318.9834Z" style="fill:#4d4d4d"/><path d="M201.5576,303.8394c4.44-1.7481,9.3565-7.3033,7.1748-12.3248a6.2154,6.2154,0,0,0-8.8965-2.9589,19.7694,19.7694,0,0,0-5.7412,5.8271,5.1856,5.1856,0,0,0-.7968,3.8809,5.3769,5.3769,0,0,0,1.3525,4.416C196.5137,304.69,199.1563,304.7847,201.5576,303.8394Z" style="fill:#4d4d4d"/><path d="M201.35,317.5869a16.5806,16.5806,0,0,0-3.0517,3.1192,5.6683,5.6683,0,0,0-1.6319,2.435c-.4189.7388-.8076,1.5025-1.1719,2.2925-1.2578,2.7314.9981,6.4643,3.7325,7.1977a5.7487,5.7487,0,0,0,3.7314-.1733,4.5173,4.5173,0,0,0,1.582-.6538,13.6687,13.6687,0,0,0,6.169-8.2808C212.0166,317.7935,205.9639,314.0337,201.35,317.5869Z" style="fill:#4d4d4d"/><path d="M183.82,155.7056a163.4029,163.4029,0,0,0-34.71-9.4536c-2.3125-2.5674-4.3887-5.4766-6.4346-8.2276a1.1868,1.1868,0,0,0-2.1006,1.0371,15.6421,15.6421,0,0,0,3.3936,6.5161c-14.4249-1.6142-29.0137-.8144-42.2149,3.8633a.7694.7694,0,0,0,.293,1.4893c21.6826-.565,41.247-1.0606,61.36,3.5156-.957.3413-1.8877.72-2.7314,1.12a32.86,32.86,0,0,0-8.3955,5.2886c-1.0547.9912.247,2.8413,1.5459,2.3252,3.0449-1.211,5.9082-2.8291,8.9609-4.05,2.2178-.8862,4.6885-1.6768,6.6-3.1523a126.0889,126.0889,0,0,1,12.2559,4.0219C184.5078,161.1206,186.7051,156.8345,183.82,155.7056Z" style="fill:#4d4d4d"/><path d="M400.873,133.5771a361.4754,361.4754,0,0,0-46.5419,5.2481,20.6869,20.6869,0,0,0,5.9306-8.6773c.4141-1.3266-1.4853-2.7006-2.5781-1.748-2.8691,2.5015-4.9434,5.8677-7.7744,8.4922a50.2929,50.2929,0,0,1-4.5049,3.6406c-18.0732,3.8745-35.6377,9.5366-50.3867,17.6836a.831.831,0,0,0,.5068,1.51,201.0525,201.0525,0,0,0,22.3711-5.0694,118.0848,118.0848,0,0,1,31.1914,8.688,1.3463,1.3463,0,0,0,1.2168-2.4,60.823,60.823,0,0,0-23.2314-8.8266c4.7548-1.3233,9.5156-2.6192,14.3134-3.7315,19.7852-4.5874,39.7393-6.9707,59.7754-9.9888C404.1855,137.9429,404.0313,133.4258,400.873,133.5771Z" style="fill:#4d4d4d"/></g></svg>