<svg xmlns="http://www.w3.org/2000/svg" viewBox="0 0 512 512"><title>Stone_Decoration</title><g id="garden_stone_adorn_garden_rock" data-name="garden stone,adorn,garden,rock"><path d="M228.9258,111.5205h0a83.8784,83.8784,0,0,0-39.0332,70.8833v5.9609A75.5958,75.5958,0,0,1,176.85,230.813l-29.1587,42.9707a157.07,157.07,0,0,0-27.0977,88.1938v36.7281a14.7053,14.7053,0,0,0,14.7051,14.7055h252.649a14.7052,14.7052,0,0,0,14.705-14.7055V354.7324a157.067,157.067,0,0,0-89.0112-141.5576l-5.8188-2.7978V132.5781a34.0522,34.0522,0,0,0-34.0523-34.0522h0A83.8784,83.8784,0,0,0,228.9258,111.5205Z" style="fill:#fff"/><path d="M402.6528,398.7056V354.7319a157.0671,157.0671,0,0,0-89.01-141.5566l-5.82-2.7983V132.5781a34.046,34.046,0,0,0-33.9732-34.0522,83.8408,83.8408,0,0,0-28.0371,4.8286c23.1226,5.7446,38.6162,12.5737,34.9854,83.9V291.1636a52.3485,52.3485,0,0,0,13.6211,34.7456c11.7,13.1347,27.03,39.3164,29.2636,87.5014h64.2657A14.7048,14.7048,0,0,0,402.6528,398.7056Z" style="fill:#d8d8d8"/><path d="M353.147,230.7158l-6.48-87.6416a54.1,54.1,0,0,0-45.0093-49.7114,160.6037,160.6037,0,0,0-28.1123-2.0747v.0034a91.1034,91.1034,0,0,0-90.896,91.1138v5.9614a68.0953,68.0953,0,0,1-11.7944,38.3784l-29.1592,42.9722a163.7071,163.7071,0,0,0-28.3477,92.2588v36.728a21.9757,21.9757,0,0,0,21.9532,21.9482H387.9458a21.9756,21.9756,0,0,0,21.9531-21.9482V354.7324A165.2263,165.2263,0,0,0,353.147,230.7158ZM127.8359,398.7041v-36.728a149.2474,149.2474,0,0,1,25.8482-84.1236L182.8428,234.88a82.5244,82.5244,0,0,0,14.2944-46.5137v-5.9614A76.629,76.629,0,0,1,273.772,105.771a26.8367,26.8367,0,0,1,26.8056,26.8052v82.3554l.0035.0015v75.8862a3.4186,3.4186,0,0,0,6.5083,1.4634l9.1723-19.3677,29.81,33.2061a72.1013,72.1013,0,0,1,14.09,42.8169v57.227H135.3013A7.4722,7.4722,0,0,1,127.8359,398.7041Z" style="fill:#4d4d4d"/><path d="M165.0044,322.3516c-4.6992,3.248-1.6108,9.64,2.7373,10.3144a4.28,4.28,0,0,0,3.58-.5815,5.8106,5.8106,0,1,0-6.3174-9.7329Z" style="fill:#4d4d4d"/><path d="M154.354,350.4292a3.4844,3.4844,0,0,0-6.4429-1.7446,10.2569,10.2569,0,0,0-1.1054,7.9961,3.4,3.4,0,0,0,5.6181,1.4839,6.8464,6.8464,0,0,0,1.895-7.39C154.3247,350.66,154.354,350.5415,154.354,350.4292Z" style="fill:#4d4d4d"/><path d="M177.4663,349.4937a6.3024,6.3024,0,0,0-.1821,1.17c-.003.0459-.022.0893-.0279.1342a4.8544,4.8544,0,0,0-.6318,2.5411c.0244,3.7412,5.4937,4.51,6.521.8823a10.6238,10.6238,0,0,0,.3906-3.9063A3.1058,3.1058,0,0,0,177.4663,349.4937Z" style="fill:#4d4d4d"/><path d="M232.1733,157.2441c4.0782.752,4.5933-5.97.3741-6.5473-3.59-.4912-7.7544-.5967-11.1245.9057-2.5313,1.1285-1.4234,4.7764,1.0576,5.0249C225.728,156.9531,228.9106,156.6426,232.1733,157.2441Z" style="fill:#4d4d4d"/><path d="M230.2988,166.6284c-1.3662.2486-2.747.2041-4.1128.4453a2.6314,2.6314,0,0,0-.8921,4.7149c1.9991,1.2719,4.0538,1.2837,6.3511,1.0971C235.6328,172.5625,234.4565,165.873,230.2988,166.6284Z" style="fill:#4d4d4d"/><path d="M231.186,184.6426c-2.2475-4.2476-8.2124,1.0307-4.2221,3.7656q.3149.2154.6289.4312a2.7559,2.7559,0,0,0,3.95-3.523Q231.3642,184.98,231.186,184.6426Z" style="fill:#4d4d4d"/><path d="M496.82,368.2686c-22.9741-1.0508-73.125,10.5732-95.9228,52.4443l35.1777.0259a12.8565,12.8565,0,0,0,11.4424-7.1773c4.9062-9.6894,17.8613-26.9131,50.3857-37.1894A4.1551,4.1551,0,0,0,496.82,368.2686Z" style="fill:#4d4d4d"/><path d="M415.5415,420.7329a12.681,12.681,0,0,0,11.9053-8.2417c6.1006-16.25,23.05-52.585,58.32-73.03,5.8022-3.3637,1.7163-11.8081-4.1353-10.8232-24.4262,4.11-94.3476,30.2153-116.0673,92.0264Z" style="fill:#6abf58"/><path d="M390.5015,415.0542a132.8308,132.8308,0,0,1,14.56-23.0171,164.0477,164.0477,0,0,1,43.4473-38.6684c1.6357-1.0059,3.1421,1.538,1.7051,2.8022-22.3838,19.6836-41.5078,38.4478-55.0454,64.4082l-7.1612-.01C388.7988,418.7051,389.62,416.8545,390.5015,415.0542Z" style="fill:#4d4d4d"/><path d="M15.18,368.2686c22.9741-1.0508,73.125,10.5732,95.9228,52.4443l-35.1777.0259a12.8565,12.8565,0,0,1-11.4424-7.1773c-4.9062-9.6894-17.8613-26.9131-50.3857-37.1894A4.1551,4.1551,0,0,1,15.18,368.2686Z" style="fill:#4d4d4d"/><path d="M96.4585,420.7329a12.681,12.681,0,0,1-11.9053-8.2417c-6.1006-16.25-23.05-52.585-58.32-73.03-5.8022-3.3637-1.7163-11.8081,4.1353-10.8232,24.4262,4.11,94.3476,30.2153,116.0673,92.0264Z" style="fill:#6abf58"/><path d="M121.4985,415.0542a132.8308,132.8308,0,0,0-14.56-23.0171,164.0554,164.0554,0,0,0-43.4473-38.6684c-1.6357-1.0059-3.1421,1.538-1.7051,2.8022,22.3838,19.6836,41.5078,38.4478,55.0454,64.4082l7.1612-.01C123.2012,418.7051,122.38,416.8545,121.4985,415.0542Z" style="fill:#4d4d4d"/></g></svg>