<svg xmlns="http://www.w3.org/2000/svg" viewBox="0 0 512 512"><title>Vipers_bowstring_hemp_Plant</title><g id="snake_plant" data-name="snake,plant"><path d="M176.9912,320.3232l21.3125,111.6973a29.9529,29.9529,0,0,0,29.4224,24.3389h61.7046a29.9529,29.9529,0,0,0,29.4223-24.3389l21.3125-111.6973Z" style="fill:#fff"/><path d="M115.125,206.69a4.4794,4.4794,0,0,0-4.771,4.0688c-.6094,8.03-.1694,28.58,19.9292,38.9419a68.5966,68.5966,0,0,1,12.4243,7.8813l2.7393,2.2642a74.9753,74.9753,0,0,1,17.645,22.0693c3.1216,5.7271,11.9424,17.42,32.9419,20.5a32.5855,32.5855,0,0,1,9.4409,2.686c4.3115,2.0679,9.95,5.6181,12.5049,10.8447h86.9394s6.8428-15.8974,35.2466-21.9346c0,0,48.5537-7.0195,61.4771-62.4663a5.53,5.53,0,0,0-6.1113-6.7387c-15.7271,2.1572-52.6724,9.5185-80.147,32.98l-56.8062-38.6137s-5.9272-33.0557-33.9585-51.8413a5.96,5.96,0,0,0-8.9336,3.0766c-3.3632,9.8877-8.2885,29.9663-4.9516,56.3858l-33.7432,6.44-6.104-10.8677a64.7617,64.7617,0,0,0-22.9355-5.1616A28.7217,28.7217,0,0,1,133.48,212.44,37.1406,37.1406,0,0,0,115.125,206.69Z" style="fill:#4d4d4d"/><path d="M136.8506,123.103a5.1121,5.1121,0,0,0-7.6939,4.4312c.083,9.6523.05,21.271,1.2559,33.8012,1.51,15.6856,6.521,30.9722,15.7285,43.7608,4.8071,6.6763,10.9785,13.1846,18.6983,17.1992,4.2954,2.2334,6.0239,4.332,6.8588,9.9107.5625,3.76,1.6114,11.163,2.7828,19.1762,3.1245,21.376,17.4213,39.9419,37.85,46.9683q2.3027.7917,4.788,1.4614a11.8369,11.8369,0,0,1,5.7154,3.3374,40.3249,40.3249,0,0,1,8.0185,12.7959h10.6441a83.0083,83.0083,0,0,1-3.0147-14.9941,30.6407,30.6407,0,0,1,.4712-9.7754c1.1753-5.7412,2.4546-17.418-1.88-32.03-3.4765-11.7207-10.542-22.0322-19.584-30.26-3.1928-2.9047-6.8-6.3461-10.06-9.8339a31.6618,31.6618,0,0,1-8.3247-19.0928c-.8467-10.2207-4.169-27.4429-16.3477-40.9175A215.9436,215.9436,0,0,0,136.8506,123.103Z" style="fill:#6abf58"/><path d="M231.33,54.2666a217.7111,217.7111,0,0,1-.5078,28.002,179.75,179.75,0,0,1-2.6143,17.8627c-1.7812,9.4693-4.5713,38.1368,21.2188,58.231,5.5576,4.3306,8.0581,11.9277,5.3008,18.4116a17.236,17.236,0,0,1-.9317,1.8648s-28.7051,38.04-5.4414,77.2119a43.2085,43.2085,0,0,1,5.6489,13.7837c1.876,9.7724,1.9536,26.1118-9.6186,46.311h14.1938s2.6118-28.0674,21.4346-44.8735c0,0,40.9028-36.3242,10.7168-92.6826a18.1423,18.1423,0,0,1-.583-16.3482c7.7695-16.4717,18.9272-56.4053-28.01-96.3389a159.8141,159.8141,0,0,0-22.31-16.4863A5.6058,5.6058,0,0,0,231.33,54.2666Z" style="fill:#6abf58"/><path d="M297.87,195.0986c-11.0752,12.7881-23.8481,38.9209-14.393,72.3741C291.5083,258.3315,309.8208,232.2344,297.87,195.0986Z" style="fill:#4d4d4d"/><path d="M268.14,315.9453A129.2614,129.2614,0,0,0,279.8574,294.12a44.5268,44.5268,0,0,0,2.6455-24.2661c-2.726-16.3447-5.0288-50.9209,33.9-81.4077a83.2561,83.2561,0,0,0,19.08-20.38c3.7285-5.83,6.2378-11.0112,9.915-20.3393,1.1949-3.03,2.1216-6.4615,4.0728-11.669,5.4189-14.4624,12.93-24.2695,33.8823-32.9795a6.4489,6.4489,0,0,1,7.3062,1.7153c7.2558,8.6993,9.7827,42.313-6.5064,60.7676a56.7183,56.7183,0,0,0-8.0683,10.4121,49.2458,49.2458,0,0,0-6.9273,24.3858c-.4458,14.8266-6.3584,55.5185-55.4521,81.1709a48.815,48.815,0,0,0-16.0659,13.3857,68.3437,68.3437,0,0,0-11.2227,21.0293Z" style="fill:#6abf58"/><path d="M372.9785,126.2788c-10.6523,15.186-10.58,34.2446-18.6216,50.5483a1.4159,1.4159,0,0,0,2.4434,1.4278c10.2778-15.39,9.4868-34.6445,19.0122-50.3194,1.1138-1.8315-1.6382-3.3608-2.834-1.6567Z" style="fill:#4d4d4d"/><path d="M137.853,138.6074c6.2583,18.8936,18.1826,33.6538,29.5557,49.6914,12.478,17.5948,21.4326,36.67,31.2358,55.7969.5064.9878,2.0264.2944,1.7583-.7417-10.4736-40.5039-41.8335-69.3257-60.998-105.4009a.8528.8528,0,0,0-1.5518.6543Z" style="fill:#4d4d4d"/><path d="M204.9683,258.8071c9.9853,18.2764,22.5214,35.607,29.5654,55.3179a.51.51,0,0,0,.9824-.271C232.33,291.91,219.2,275.4521,207.8022,257.15a1.6423,1.6423,0,0,0-2.8339,1.6567Z" style="fill:#4d4d4d"/><path d="M274.3174,319.1934c15.3555-18.0264,22.334-38.1607,29.4194-60.3023,9.0567-28.3,33.6836-43.56,45.8413-69.2817.33-.6973-.5815-1.58-1.1557-.8916-15.1011,18.1064-32.5977,34.7529-42.0694,56.6816-10.6772,24.7188-20.6606,48.9932-33.1909,72.9024-.3686.7031.5879,1.5576,1.1553.8916Z" style="fill:#4d4d4d"/><path d="M248.291,85.9062c-3.0054,13.0528-3.36,24.379,1.8648,36.95,5.9126,14.2246,15.2465,25.6108,17.5991,41.2846.206,1.3716,2.2871.9654,2.3345-.3159.3862-10.4844-3.147-19.68-7.32-29.1821-7.2251-16.4536-11.792-29.9092-10.3657-48.18.1841-2.3555-3.5864-2.8433-4.1128-.5567Z" style="fill:#4d4d4d"/><path d="M268.9546,190.9019c-1.2764,11.2509-5.8325,21.8789-6.2515,33.2358-.4311,11.6807,2.0874,23.3584,2.0689,35.0942-.0015.9234,1.5254,1.1978,1.6675.2261,1.5942-10.9316-.2139-21.82.0488-32.8164.292-12.2485,4.479-23.626,5.6357-35.74.1944-2.0415-2.9428-1.9961-3.1694,0Z" style="fill:#4d4d4d"/><path d="M289.46,320.3232l-9.2818,91.7447s1.9239,32.8491-63.6718,42.0385a29.7674,29.7674,0,0,0,11.22,2.253h61.7046a29.9529,29.9529,0,0,0,29.4223-24.3389l21.3125-111.6973Z" style="fill:#d8d8d8"/><path d="M289.4312,463.6025H227.7271a37.2424,37.2424,0,0,1-36.54-30.2246L168.2329,313.08h180.69l-22.955,120.2978A37.234,37.234,0,0,1,289.4312,463.6025ZM185.748,327.5674,205.42,430.6611a22.7338,22.7338,0,0,0,22.3067,18.4541h61.7041a22.7275,22.7275,0,0,0,22.3042-18.4516l19.6728-103.0962Z" style="fill:#4d4d4d"/></g></svg>