<svg xmlns="http://www.w3.org/2000/svg" viewBox="0 0 512 512"><title>Watering_Can</title><g id="watering_can_tool_garden" data-name="watering can,tool,garden"><rect x="198.6909" y="413.1489" width="197.8277" height="30.6841" style="fill:#4d4d4d"/><path d="M69.3076,171.5635l159.605,176.48-13.47,65.1059L69.769,217.6406l-45.44-1.0737a10.9219,10.9219,0,0,1-6.11-18.8936L47.7573,170.561A15.1991,15.1991,0,0,1,69.3076,171.5635Z" style="fill:#fff"/><path d="M328.4883,68c-77.0235,0-139.6846,62.6616-139.6846,139.6831s62.6611,139.6826,139.6846,139.6826c77.0176,0,139.6787-62.6611,139.6787-139.6826S405.5059,68,328.4883,68Zm92.33,139.6831a92.3309,92.3309,0,1,1-92.33-92.33A92.4364,92.4364,0,0,1,420.8184,207.6826Z" style="fill:#4d4d4d"/><path d="M197.1215,207.6831H357.8369a26.0938,26.0938,0,0,1,26.0938,26.0938V398.5791a38.1792,38.1792,0,0,1-38.1792,38.1792H234.2275a38.1792,38.1792,0,0,1-38.1792-38.1792V208.7563A1.0732,1.0732,0,0,1,197.1215,207.6831Z" style="fill:#fff"/><path d="M357.8369,207.6826H317.293c8.82,9.4883,18.19,25.5342,18.19,51.169V391.4585a66.6074,66.6074,0,0,1-17.78,45.3H345.751a38.18,38.18,0,0,0,38.18-38.1792V233.7764A26.0939,26.0939,0,0,0,357.8369,207.6826Z" style="fill:#d8d8d8"/><path d="M357.8359,200.4385H197.1226a8.3278,8.3278,0,0,0-8.3189,8.3193v84.1377L74.6792,166.7051h.0024a22.2967,22.2967,0,0,0-15.603-7.3662A22.6844,22.6844,0,0,0,42.86,165.2246L13.3242,192.3364a18.1645,18.1645,0,0,0,10.16,31.4273L66.07,224.8013l122.7339,164.72v9.0591a45.4723,45.4723,0,0,0,45.4243,45.42H345.749a45.4727,45.4727,0,0,0,45.4248-45.42V233.7759A33.3749,33.3749,0,0,0,357.8359,200.4385ZM24.9185,209.3379a3.6782,3.6782,0,0,1-1.8018-6.3242l29.541-27.1172a7.9971,7.9971,0,0,1,5.7486-2.0845,7.8845,7.8845,0,0,1,5.5273,2.6079l116.939,129.3028a56.5554,56.5554,0,0,1-19.127,23.2358L73.4692,210.4834Zm351.767,189.2427a30.9685,30.9685,0,0,1-30.9365,30.9321H234.228a31.0236,31.0236,0,0,1-30.937-30.9321V214.9263h38.5444a17.6969,17.6969,0,0,0,17.4722,21.1274H320.67a17.6988,17.6988,0,0,0,17.4717-21.1274h19.6943a18.87,18.87,0,0,1,18.85,18.85Z" style="fill:#4d4d4d"/><path d="M500.623,391.5225c-22.9736-1.0508-73.125,10.5732-95.9218,52.4443l35.1767.0259a12.8539,12.8539,0,0,0,11.4424-7.1773c4.9063-9.6894,17.8623-26.9131,50.3858-37.1894A4.1551,4.1551,0,0,0,500.623,391.5225Z" style="fill:#4d4d4d"/><path d="M419.3457,443.9868a12.6807,12.6807,0,0,0,11.9043-8.2417c6.1016-16.25,23.0508-52.5849,58.32-73.03,5.8027-3.3632,1.7158-11.8071-4.1348-10.8227-24.4267,4.11-94.3486,30.2153-116.0683,92.0264Z" style="fill:#6abf58"/><path d="M394.3047,438.3086a132.8076,132.8076,0,0,1,14.56-23.0176,164.0554,164.0554,0,0,1,43.4473-38.6684c1.6357-1.0059,3.1426,1.538,1.7051,2.8022-22.3838,19.6836-41.5078,38.4478-55.0449,64.4082l-7.1622-.01C392.6025,441.959,393.4238,440.1084,394.3047,438.3086Z" style="fill:#4d4d4d"/><path d="M77.9639,391.5225c22.9746-1.0508,73.1255,10.5732,95.9233,52.4443l-35.1777.0259a12.855,12.855,0,0,1-11.4424-7.1773c-4.9067-9.6894-17.8618-26.9131-50.3858-37.1894A4.1551,4.1551,0,0,1,77.9639,391.5225Z" style="fill:#4d4d4d"/><path d="M159.2422,443.9868a12.6808,12.6808,0,0,1-11.9048-8.2417c-6.1011-16.25-23.05-52.5849-58.32-73.03-5.8028-3.3632-1.7163-11.8071,4.1347-10.8227,24.4268,4.11,94.3482,30.2153,116.0674,92.0264Z" style="fill:#6abf58"/><path d="M184.2822,438.3086a132.8025,132.8025,0,0,0-14.5595-23.0176,164.05,164.05,0,0,0-43.4478-38.6684c-1.6353-1.0059-3.1421,1.538-1.7046,2.8022,22.3838,19.6836,41.5078,38.4478,55.0449,64.4082l7.1617-.01C185.9854,441.959,185.1641,440.1084,184.2822,438.3086Z" style="fill:#4d4d4d"/><path d="M223.8018,265.5654c10.8984.1328,21.5673-.3652,32.45.8379,4.0376.4468,3.9712-5.8257,0-6.3-10.8916-1.3022-22.3409-2.0049-33.187.0157-3.1412.5854-2.3091,5.41.7373,5.4467Z" style="fill:#4d4d4d"/><path d="M223.3184,283.6807c2.7465.8335,5.8295.2592,8.6816.24a75.0169,75.0169,0,0,1,9.5776.5137c3.731.4507,3.7544-5.4912,0-5.8858-5.3994-.5673-13.958-1.58-18.7094,1.6846a1.9126,1.9126,0,0,0,.45,3.4478Z" style="fill:#4d4d4d"/><path d="M224.749,300.9946c1.9165,1.2281,4.794,1.1988,7.0059.9942a2.5107,2.5107,0,0,0,0-5.0181c-2.2183-.2046-5.0767-.2417-7.0059.9946a1.7762,1.7762,0,0,0,0,3.0293Z" style="fill:#4d4d4d"/></g></svg>