<svg xmlns="http://www.w3.org/2000/svg" viewBox="0 0 512 512"><title>Waterfall_Decoration</title><g id="garden_waterfall_adorn_garden" data-name="garden waterfall,adorn,garden"><path d="M296.95,93.519H150.6533A54.9561,54.9561,0,0,0,95.98,142.9033L75.1323,347.4751H428.5674l-14.3389-93.8027c-3.2754-21.4253-11.3691-34.5005-27.68-48.773h0a91.8994,91.8994,0,0,1-27.5971-43.0542l-6.6607-22.48C345.376,116.03,321.2886,93.519,296.95,93.519Z" style="fill:#6abf58"/><path d="M434.1587,347.4751H402.7173a32.9251,32.9251,0,0,0-25.8355-40.4634V257.2324a36.7354,36.7354,0,0,0-36.7353-36.7358h-2.63a18.2554,18.2554,0,0,1-18.2544-18.0611l-.97-91.14A17.9676,17.9676,0,0,0,300.3252,93.519l-109.1743,0a.2109.2109,0,0,0-.0435.4165c11.8364,3.6294,19.8726,9.1015,19.8726,21.7192v91.81a21.72,21.72,0,0,0,21.72,21.72h21.7861a37.3181,37.3181,0,0,1,37.3179,37.3178V306.543c-.8955-.0728-1.7935-.1367-2.7075-.1367A32.9624,32.9624,0,0,0,257.03,347.4751H77.8423A34.1823,34.1823,0,0,0,43.66,381.6572v2.6436a34.1828,34.1828,0,0,0,34.1826,34.1826H434.1587a34.1823,34.1823,0,0,0,34.1821-34.1826v-2.6436A34.1819,34.1819,0,0,0,434.1587,347.4751Z" style="fill:#fff"/><path d="M434.1582,347.4746H402.7173a32.9246,32.9246,0,0,0-25.8355-40.4629v-49.78a36.7349,36.7349,0,0,0-36.7353-36.7348h-2.63a18.2559,18.2559,0,0,1-18.2544-18.0616l-.97-91.14a17.9679,17.9679,0,0,0-17.9668-17.7768H279.123a50.6943,50.6943,0,0,1,12.4244,33.8808v100h37.8554s26.37,6.9663,26.37,28.6011l.4976,67.8325s26.8276-2.2207,19.6743,25.6929a50.0654,50.0654,0,0,0-1.7309,12.3926v0a12.1955,12.1955,0,0,0,12.6035,12.226c21.7363-.7661,81.2314-1.2627,81.2314-1.2627C466.145,353.3984,453.0366,347.4746,434.1582,347.4746Z" style="fill:#d8d8d8"/><path d="M434.7925,340.2617,421.39,252.5786c-3.4072-22.2832-11.8369-37.1807-30.0712-53.13a84.5584,84.5584,0,0,1-25.4244-39.6611l-6.67-22.519c-7.2763-24.0313-19.8222-48.5176-56.6972-50.772-.7364-.0654-1.4478-.2222-2.2007-.2222H150.6543A62.031,62.031,0,0,0,88.7734,142.168L68.4766,341.3374a41.4685,41.4685,0,0,0-32.06,40.3179v2.6455a41.4709,41.4709,0,0,0,41.4253,41.4253H434.1582a41.4709,41.4709,0,0,0,41.4253-41.4253v-2.6455A41.4549,41.4549,0,0,0,434.7925,340.2617Zm-152.9395-239.5h15.0982a34.5773,34.5773,0,0,1,3.6259.2149c1.1719.1333,2.3394.3232,3.5005.56a10.6694,10.6694,0,0,1,6.97,9.836l.9716,91.1362a25.3814,25.3814,0,0,0,9.5391,19.43H232.7007a14.4923,14.4923,0,0,1-14.478-14.4737V115.6548a27.1021,27.1021,0,0,0-3.99-14.8931ZM103.1855,143.6392a47.587,47.587,0,0,1,47.4688-42.8775H188.87c1.7925.0156,14.5669.624,14.8648,14.8931v91.8105a28.9975,28.9975,0,0,0,28.9658,28.961h21.7856A30.1084,30.1084,0,0,1,284.56,266.5v32.918a40.378,40.378,0,0,0-35.7852,40.0669c0,.25.0024.4951.0073.7451H83.1519Zm357.91,240.6616a26.9378,26.9378,0,0,1-26.9375,26.9375H77.8418a26.9378,26.9378,0,0,1-26.9375-26.9375v-2.6455a26.9375,26.9375,0,0,1,26.9375-26.938H266.2949l-2.2353-8.9932a26.1523,26.1523,0,0,1-.7481-5.4941c-.0083-.2466-.0488-.501-.0488-.7451a25.8625,25.8625,0,0,1,25.834-25.8345c.7075,0,1.4028.0522,2.0986.1133l7.8521.66V266.5a44.3357,44.3357,0,0,0-11.7754-30.0737h63.1543c8.7021,0,16.5742,5.8217,18.4907,14.31a29.4325,29.4325,0,0,1,.7217,6.4966V313l5.8857,1.1275a25.84,25.84,0,0,1,20.9624,25.3579c0,.2441-.0405.4985-.0488.7451a25.9782,25.9782,0,0,1-.75,5.4892l-.438,1.7554-1.8071,7.2427h40.7158a26.9375,26.9375,0,0,1,26.9375,26.938Z" style="fill:#4d4d4d"/><path d="M244.6772,145.7642c.1612,9.5981-1.6889,19.9878-.1059,29.4462.8911,5.3228,8.6631,3.64,8.9609-1.2128.57-9.2886,2.187-20.3106-.0732-29.4219C252.2471,139.6914,244.5923,140.71,244.6772,145.7642Z" style="fill:#6abf58"/><path d="M272.0337,128.9688a3.2273,3.2273,0,0,0-5.5381,0,20.35,20.35,0,0,0-1.852,8.4277c-1.211,7.4609-.1685,15.8545-.1573,23.23a4.7813,4.7813,0,0,0,9.5567,0c.0112-7.38,1.0537-15.7676-.1568-23.2276A20.351,20.351,0,0,0,272.0337,128.9688Z" style="fill:#6abf58"/><path d="M324.8716,279.81a3.3368,3.3368,0,0,0-6.3667,0,21.93,21.93,0,0,0-1.3823,7.1074,44.0631,44.0631,0,0,0-.2261,5.7827v16.999c0,6.166,9.583,6.1763,9.583,0V292.7a44.5362,44.5362,0,0,0-.2207-5.7427A21.91,21.91,0,0,0,324.8716,279.81Z" style="fill:#6abf58"/><path d="M341.7764,285.6372c.26-8.01.0586-16.0659.0586-24.0742,0-6.19-9.62-6.2007-9.62,0,0,8.0083-.2011,16.0644.0586,24.0742.001.0679,0,.1353.0005.2031l.003.0122c.02.6094,0,1.2227.0263,1.8316a4.9063,4.9063,0,0,0,.2969,1.45,4.5156,4.5156,0,0,0,1.5635,2.2578,4.6487,4.6487,0,0,0,.7661.4326c.0293.0151.0557.0337.0849.0483a4.4327,4.4327,0,0,0,.9434.3335c.1221.0318.2412.0606.3652.0816a5.3277,5.3277,0,0,0,1.44-.0059c.0918-.0161.18-.0381.2705-.06a4.4413,4.4413,0,0,0,1.0161-.3575l.0249-.0136a4.697,4.697,0,0,0,.811-.459,4.5093,4.5093,0,0,0,1.5586-2.2456,4.8982,4.8982,0,0,0,.3023-1.4624c.0268-.6084.0058-1.2212.0263-1.83l.0025-.0137C341.7764,285.7725,341.7754,285.7051,341.7764,285.6372Z" style="fill:#6abf58"/></g></svg>